<?xml version="1.0" encoding="utf-8"?>
<!-- Generator: Adobe Illustrator 23.1.0, SVG Export Plug-In . SVG Version: 6.00 Build 0)  -->
<svg version="1.1" id="business" xmlns="http://www.w3.org/2000/svg" xmlns:xlink="http://www.w3.org/1999/xlink" x="0px" y="0px"
	 viewBox="0 0 606.1 619.8" style="enable-background:new 0 0 606.1 619.8;" xml:space="preserve">
<style type="text/css">
	.st0{fill:#F2F2F2;}
	.st1{fill:#E6E6E6;}
	.st2{fill:#3F3D56;}
	.st3{fill:#FFFFFF;}
	.st4{fill:#6C63FF;}
	.st5{fill:#FFB8B8;}
	.st6{fill:#FFB6B6;}
	.st7{fill:#2F2E41;}
	.rect{fill:rgba(0, 0, 0, 0);}
	.st9{fill:#3F3D56;stroke:#3F3D56;stroke-miterlimit:10;}
	.st10{fill-rule:evenodd;clip-rule:evenodd;fill:#3F3D56;stroke:#3F3D56;stroke-miterlimit:10;}
</style>
<title>business</title>
<path class="st0" d="M271,358.4c-40.4,0-86.9-44.8-128-23.5C18.6,399.4,35.7,291.4,0,251.3l1.2-2.4c39.4,35.4,88.7,64.1,142.4,83.2
	c48.6,17.2,97.4,25.2,141.4,23.1l0.1,2.8C280.4,358.3,275.7,358.4,271,358.4z"/>
<path class="st0" d="M566,97.8c-32.2,24.4-96.3,16.7-116.2,58.5C389.5,282.8,338,186.4,285.3,176l-0.5-2.6
	c52.8,4.4,109.4-2.4,163.8-19.6c49.1-15.6,92.9-38.7,126.7-67L577,89C573.4,92,569.8,94.9,566,97.8z"/>
<ellipse class="st1" cx="89.5" cy="158.9" rx="8.4" ry="11.3"/>
<ellipse class="st1" cx="444.5" cy="264.9" rx="8.5" ry="11.3"/>
<ellipse class="st1" cx="212.5" cy="17.9" rx="8.4" ry="11.3"/>
<path class="st2" d="M364,424.7l-9.8-59.1c-0.4-2.5,1.3-4.8,3.8-5.3c0,0,0,0,0,0l44.6-7.4c2.5-0.4,4.8,1.3,5.3,3.8l9.8,59.1
	c0.4,2.5-1.3,4.8-3.8,5.3c0,0,0,0,0,0l-44.6,7.4C366.8,428.8,364.4,427.2,364,424.7z"/>
<path class="st3" d="M364.4,406.3l-6.3-38c-0.4-2.3,1.2-4.5,3.5-4.9L400,357c2.3-0.4,4.5,1.2,4.9,3.5c0,0,0,0,0,0l8.7,52.6
	c0.4,2.3-1.2,4.5-3.5,4.9l-23.8,4C376,423.7,366.2,416.7,364.4,406.3z"/>
<path class="st4" d="M366.1,377.8c-0.4-2.3,1.2-4.4,3.4-4.8c0,0,0,0,0,0l26.6-4.4c2.3-0.4,4.4,1.2,4.8,3.4s-1.2,4.4-3.4,4.8l0,0
	l-26.6,4.4C368.6,381.7,366.5,380.1,366.1,377.8C366.1,377.8,366.1,377.8,366.1,377.8z"/>
<path class="st4" d="M368.2,390.7c-0.4-2.3,1.2-4.4,3.5-4.8l26.6-4.4c2.3-0.4,4.4,1.2,4.8,3.4s-1.2,4.4-3.4,4.8l0,0l-26.6,4.4
	C370.8,394.5,368.6,393,368.2,390.7z"/>
<path class="st4" d="M370.4,403.5c-0.4-2.3,1.2-4.4,3.4-4.8l26.6-4.4c2.3-0.4,4.4,1.2,4.8,3.4s-1.2,4.4-3.4,4.8l0,0l-26.6,4.5
	C372.9,407.4,370.7,405.8,370.4,403.5C370.4,403.5,370.4,403.5,370.4,403.5z"/>
<path class="st5" d="M343.8,369c-4.4-4.9-3.9-12.5,1-16.9c0.5-0.5,1.1-0.9,1.7-1.3L331,276.7l20.6,7.9l11.9,70.8
	c3.3,5.7,1.4,13.1-4.4,16.4C354.1,374.8,347.6,373.6,343.8,369z"/>
<polygon class="st6" points="337,603.4 354,603.4 362,537.9 337,537.9 "/>
<path class="st7" d="M332.6,597.8h4.8l18.6-7.6l10,7.6l0,0c11.8,0,21.3,9.5,21.3,21.3v0.7h-54.7V597.8z"/>
<polygon class="st6" points="183.6,581.3 198.8,588.9 235.2,533.8 212.8,522.7 "/>
<path class="st7" d="M182.2,574.4l4.3,2.1l20.1,1.5l5.6,11.3l0,0c10.5,5.3,14.8,18,9.6,28.6l-0.3,0.6l-49-24.4L182.2,574.4z"/>
<path class="st7" d="M344.5,305.9l-107.9,2.8l1.9,52.6c0,0-1.9,14.1,1.9,17.8s5.6,3.8,3.8,10.3s-6.7,69.4-6.7,69.4
	s-44.3,78.3-42.4,80.2s3.8,0,1.9,4.7s-3.8,2.8-1.9,4.7c1.7,1.8,3.2,3.7,4.7,5.6h30.6c0,0,1.7-9.4,1.7-10.3s1.9-6.6,1.9-7.5
	s53.5-57.6,53.5-57.6l11.3-93.9l27.2,92c0,0,0,80.7,1.9,82.6s1.9,0.9,0.9,4.7s-4.7,2.8-1.9,5.6s3.8-1.9,2.8,2.8l-0.9,4.7l36.1,0.4
	c0,0,3.8-7.9,1.9-10.7s-1.8-2,0.5-6.7s3.2-5.5,2.3-6.5s-0.9-5.9-0.9-5.9s-13.5-184.6-13.5-187.4c-0.1-1.5,0.2-2.9,0.8-4.2v-3.8
	l-3.6-13.5L344.5,305.9z"/>
<path class="st0" d="M441.8,568.1l0.9-21c9.7-5.2,20.5-7.9,31.5-8c-15.1,12.4-13.3,36.3-23.5,52.9c-6.6,10.5-17.6,17.4-29.8,18.8
	l-12.7,7.8c-3.5-19.6,1.7-39.8,14.4-55.3c3.5-4.2,7.6-8,12.1-11.2C437.8,560.2,441.8,568.1,441.8,568.1z"/>
<polygon class="st7" points="288.6,121.6 342.7,230.9 332.1,363.7 263,357.3 250.6,137.6 "/>
<path class="st7" d="M364.5,349l-31.6-2.9l0-0.4l-21.2-175.6l4.8-13.2c2.3-6.4,7.8-11,14.4-12.3l0,0c10.4-2,20.5,4.8,22.5,15.2
	c0,0,0,0,0,0v0.1l5.7,30.6l8,103.6L364.5,349z"/>
<path class="st4" d="M282.3,137.8l6.4-15.3l19.7,0.3l20.6,29.1l21.6,90.8c0,0,7.8,66.3,0,69.8s-34-0.8-34-0.8L282.3,137.8z"/>
<path class="st7" d="M308.4,122.9c0,0,42.5,24.6,44.1,37.4s7.2,169.7,7.2,169.7l-15-9.7l-4.1-57.2L322.3,146L308.4,122.9z"/>
<circle class="st5" cx="298.3" cy="86.8" r="29"/>
<path class="st7" d="M265.5,67.8c3.3-5,9.4-8.4,15.3-7.4c1.7-11.4,12.3-19.3,23.6-17.6c4.2,0.6,8.2,2.5,11.3,5.5
	c1.9-1.3,4.3-1.6,6.3-0.6c2,0.9,3.8,2.3,5.1,4.1c6.9,8.6,8.5,20.3,4.2,30.5c0.7-2.6-1.9-5.1-4.6-5.7s-5.5,0-8.1-0.4
	c-3.5-0.5-6.6-2.5-10-2.9c-2.9-0.4-5.8,0.4-8.7,1.1s-5.8,1.5-8.7,1.2s-6.7,10.7-6.6,18.5c0,1.5-0.3,3.4-1.7,3.7
	c-1.8,0.4-2.8-2.1-4.5-2.7c-1.6-0.5-3.3,0.4-3.8,2c-0.4,1.6,0,3.3,1,4.6c1,1.2,2.3,2.3,3.6,3.2l-0.7,0.6c-1.2,1.5-3.6,1.6-5.2,0.7
	c-1.6-1.1-2.9-2.5-3.8-4.3c-3.1-5.1-5.8-10.6-6.9-16.5S262.2,72.8,265.5,67.8z"/>
<path class="st1" d="M202.4,282.2l57.8-62.1c2.4-2.6,6.5-2.8,9.1-0.3c0,0,0,0,0,0l46.9,43.7c2.6,2.4,2.8,6.5,0.3,9.1l-57.9,62.1
	c-2.4,2.6-6.5,2.8-9.1,0.3l-46.9-43.7C200.1,288.9,200,284.8,202.4,282.2C202.4,282.2,202.4,282.2,202.4,282.2z"/>
<path class="st3" d="M223.5,266.8l37.2-39.9c2.3-2.4,6.1-2.6,8.6-0.3l40.3,37.6c2.4,2.3,2.6,6.1,0.3,8.6L258.4,328
	c-2.3,2.4-6.1,2.6-8.6,0.3L224.8,305C213.9,294.8,213.3,277.7,223.5,266.8z"/>
<path class="st1" d="M256.8,244.1c2.2-2.4,6-2.5,8.4-0.3c0,0,0,0,0,0l28,26c2.4,2.3,2.4,6,0.1,8.4c-2.2,2.3-5.9,2.4-8.2,0.3
	l-27.9-26.1C254.8,250.2,254.6,246.5,256.8,244.1z"/>
<path class="st1" d="M244.3,257.6c2.2-2.4,6-2.5,8.4-0.3l27.9,26c2.5,2.1,2.8,5.9,0.6,8.4s-5.9,2.8-8.4,0.6
	c-0.1-0.1-0.2-0.2-0.3-0.3l0,0L244.6,266C242.2,263.8,242,260,244.3,257.6C244.2,257.6,244.2,257.6,244.3,257.6z"/>
<path class="st1" d="M231.7,271.1c2.2-2.4,6-2.5,8.4-0.3l27.9,26.1c2.3,2.3,2.3,6.1,0,8.4c-2.2,2.2-5.7,2.3-8.1,0.3l-28-26
	C229.5,277.2,229.4,273.5,231.7,271.1z"/>
<path class="st3" d="M299.7,345.1l-20,28.6l-0.9,1.1c-1.6,2-3.9,3.3-6.3,3.8c-0.4,0.1-0.7,0.1-1.1,0.2c-0.4,0-0.9,0-1.3,0
	c-0.3,0-0.5,0-0.8,0c-1.5-0.1-2.9-0.5-4.2-1.2l-8.5-6c-0.7-0.5-1.2-1.2-1.4-2c-0.1-0.4-0.1-0.8-0.1-1.2c0.1-0.6,0.3-1.1,0.6-1.6
	l24.6-35.3c1.1-1.6,3.2-1.9,4.8-0.9l13.7,9.6l0.1,0.1l0.1,0l0.1,0.1l0.1,0.1l0.1,0.1l0,0c0,0,0.1,0.1,0.1,0.1l0.1,0.1l0.1,0.1l0,0
	c0.1,0.1,0.1,0.2,0.2,0.3l0.1,0.1l0,0c0,0,0,0,0,0.1l0.1,0.2c0.1,0.1,0.1,0.2,0.1,0.4c0,0,0,0.1,0,0.1v0.1l0,0l0,0c0,0,0,0.1,0,0.1
	s0,0.1,0,0.2c0,0,0,0,0,0l0,0v0.1c0,0,0,0.1,0,0.1c0,0.1,0,0.1,0,0.2c0,0,0,0.1,0,0.1v0.1l0,0v0.1c0,0.1,0,0.2,0,0.3
	c0,0,0,0.1,0,0.1v0.1c0,0,0,0,0,0c0,0,0,0.1,0,0.1v0.1v0.1l0,0.1c0,0,0,0,0,0.1c-0.1,0.2-0.2,0.3-0.3,0.5c0,0,0,0,0,0
	C299.7,344.9,299.7,345,299.7,345.1z"/>
<circle class="st4" cx="286.1" cy="343.2" r="2.9"/>
<path class="st5" d="M253,374.3c-4.4-4.9-3.9-12.5,1-16.9c0.5-0.5,1.1-0.9,1.7-1.3L240.1,282l20.6,7.9l11.9,70.8
	c3.2,5.8,1,13.1-4.8,16.3C262.9,379.7,256.7,378.6,253,374.3z"/>
<path class="st7" d="M241.5,344.2l-8.4-54.1L230,186.2l2.4-31.1c0.8-10.6,10-18.5,20.6-17.7c0,0,0,0,0,0h0.1
	c6.7,0.6,12.7,4.6,15.7,10.7l6.1,12.6l-2.2,177.2L241.5,344.2z"/>
<path class="st3" d="M275.7,98.6c0.1-1.1,1-2,2.1-1.9c1.1,0.1,2,1,1.9,2.1l0,0c0,0.5-0.3,1-0.6,1.4l3.4,5.5c0.3,0.4,0.3,1.1-0.2,1.4
	c-0.4,0.3-1.1,0.3-1.4-0.2c-0.1-0.1-0.1-0.2-0.1-0.2l-3.8-6.2C276.1,100.1,275.6,99.4,275.7,98.6z"/>
<path class="st7" d="M278.7,102.5L278.7,102.5c-0.2,0.1-0.5,0-0.7-0.2c0,0,0,0,0,0l-0.9-1.8c-0.1-0.2,0-0.5,0.2-0.7c0,0,0,0,0,0l0,0
	c0.2-0.1,0.5,0,0.7,0.2c0,0,0,0,0,0l0.9,1.8C279,102.1,278.9,102.4,278.7,102.5C278.7,102.5,278.7,102.5,278.7,102.5z"/>
<g>
	<a className='linkedin' target='_blank' href='https://www.linkedin.com/in/cunjunyin/' rel='noopener noreferrer'>
		<rect x="26.7" y="198.1" class="rect" width="84" height="84"/>
		<path class="st9" d="M74.5,282.3c-22.9,3.5-44.4-12.2-47.9-35.2s12.2-44.4,35.2-47.9c22.9-3.5,44.4,12.2,47.9,35.1
			C113.1,257.3,97.4,278.8,74.5,282.3C74.5,282.3,74.5,282.3,74.5,282.3z M62,201.2c-21.8,3.3-36.8,23.8-33.5,45.6
			s23.8,36.8,45.6,33.5c21.8-3.3,36.8-23.8,33.5-45.6l0,0C104.3,212.9,83.8,197.9,62,201.2C62,201.2,62,201.2,62,201.2z"/>
		<path class="st2" d="M88.7,224.2l-33.9-6c-2.1-0.4-4,1-4.4,3.1c0,0,0,0,0,0l-6,33.9c-0.4,2.1,1,4,3.1,4.4c0,0,0,0,0,0l33.9,6
			c2.1,0.4,4-1,4.4-3.1c0,0,0,0,0,0l6-33.9C92.1,226.5,90.8,224.5,88.7,224.2C88.7,224.2,88.7,224.2,88.7,224.2z M57.6,255.5
			c-0.1,0.6-0.7,1-1.3,0.9l-4.6-0.8c-0.6-0.1-1-0.7-0.9-1.3c0,0,0,0,0,0l3.4-19.4c0.1-0.6,0.7-1,1.3-0.9c0,0,0,0,0,0l4.6,0.8
			c0.6,0.1,1,0.7,0.9,1.3L57.6,255.5z M58.1,232.6c-2.4-0.4-4.1-2.7-3.6-5.2c0.4-2.4,2.7-4.1,5.2-3.6c2.4,0.4,4.1,2.7,3.6,5.2
			C62.9,231.4,60.5,233,58.1,232.6C58.1,232.6,58.1,232.6,58.1,232.6z M81.8,259.9c-0.1,0.5-0.6,0.9-1.1,0.8c0,0,0,0,0,0l-5-0.9
			c-0.5-0.1-0.9-0.6-0.8-1.1c0,0,0,0,0,0l1.6-9.1c0.2-1.4,1.4-5.9-2.5-6.6c-3.1-0.5-4.2,2.5-4.6,3.9l-1.8,10.5
			c-0.1,0.5-0.6,0.9-1.1,0.8c0,0,0,0,0,0l-4.8-0.9c-0.5-0.1-0.9-0.6-0.8-1.1c0,0,0,0,0,0l3.5-19.6c0.1-0.5,0.6-0.9,1.1-0.8
			c0,0,0,0,0,0l4.8,0.9c0.5,0.1,0.9,0.6,0.8,1.1c0,0,0,0,0,0l-0.3,1.7c1.4-1.5,3.4-2.5,7-1.9c8,1.4,6.6,8.8,5.9,12.9L81.8,259.9
			L81.8,259.9z"/>
	</a>
</g>
<g>
	<a className='github' target='_blank' href='https://github.com/CunjunYin' rel='noopener noreferrer'>
		<rect x="521.6" class="rect" width="84" height="84"/>
		<path class="st9" d="M569.9,84C547,87.5,525.6,71.8,522,48.8C518.5,25.9,534.3,4.5,557.2,1c22.9-3.5,44.4,12.2,47.9,35.1
			C608.6,59,592.8,80.5,569.9,84C569.9,84,569.9,84,569.9,84z M557.5,3c-21.8,3.3-36.8,23.8-33.5,45.6s23.8,36.8,45.6,33.5
			c21.8-3.3,36.8-23.8,33.5-45.6c0,0,0,0,0,0l0,0C599.7,14.6,579.3-0.3,557.5,3z"/>
		<path class="st10" d="M563.5,18.9c-13.3,0-24,10.7-24,24c0,10.4,6.6,19.6,16.5,22.8c1.2,0.2,1.6-0.5,1.6-1.2s0-2.5,0-4.5
			c-6.7,1.5-8.1-2.8-8.1-2.8c-1.1-2.8-2.7-3.5-2.7-3.5c-2.2-1.5,0.2-1.5,0.2-1.5c1.5,0.2,2.9,1.1,3.7,2.5c2.1,3.7,5.6,2.6,7,2
			c0.1-1.2,0.6-2.4,1.5-3.2c-5.3-0.6-10.9-2.7-10.9-11.9c0-2.4,0.9-4.7,2.5-6.4c-0.7-2.1-0.7-4.3,0.2-6.4c0,0,2-0.6,6.6,2.5
			c3.9-1.1,8.1-1.1,12,0c4.6-3.1,6.6-2.5,6.6-2.5c0.9,2,1,4.3,0.2,6.3c1.6,1.7,2.5,4.1,2.5,6.4c0,9.2-5.6,11.3-11,11.8
			c1.2,1.2,1.7,2.8,1.6,4.5c0,3.2,0,5.8,0,6.6c0,0.6,0.4,1.4,1.7,1.2c12.6-4.2,19.4-17.7,15.3-30.3C583.2,25.5,574,18.8,563.5,18.9
			L563.5,18.9z"/>
		<path class="st9" d="M548.6,53.3c-0.1,0.1-0.3,0.2-0.4,0.1c0,0,0,0,0,0c-0.2-0.1-0.3-0.2-0.2-0.4s0.2-0.2,0.4-0.1
			S548.7,53.2,548.6,53.3z"/>
		<path class="st9" d="M549.6,54.4c-0.1,0.1-0.3,0-0.5-0.1s-0.2-0.4-0.1-0.5s0.3-0.1,0.5,0.1S549.7,54.3,549.6,54.4z"/>
		<path class="st9" d="M550.6,55.8c-0.2,0.1-0.4,0-0.5-0.2s-0.2-0.5,0-0.6s0.4,0,0.5,0.2S550.7,55.7,550.6,55.8z"/>
		<path class="st9" d="M551.8,57.1c-0.1,0.2-0.4,0.1-0.6-0.1s-0.3-0.5-0.1-0.6s0.4-0.1,0.6,0.1S552,57,551.8,57.1z"/>
		<path class="st9" d="M553.6,57.9c-0.1,0.2-0.3,0.3-0.6,0.2s-0.5-0.3-0.4-0.5s0.3-0.3,0.6-0.2S553.7,57.7,553.6,57.9z"/>
		<path class="st9" d="M555.6,58c0,0.2-0.2,0.4-0.5,0.4s-0.5-0.2-0.5-0.3s0.2-0.4,0.5-0.4S555.6,57.8,555.6,58z"/>
		<path class="st9" d="M557.4,57.7c0,0.2-0.2,0.4-0.5,0.5s-0.5-0.1-0.6-0.3s0.2-0.4,0.4-0.5S557.4,57.5,557.4,57.7z"/>
	</a>
</g>
</svg>
