<?xml version="1.0" encoding="utf-8"?>
<!-- Generator: Adobe Illustrator 23.1.0, SVG Export Plug-In . SVG Version: 6.00 Build 0)  -->
<svg version="1.1" id="dream"
	 xmlns="http://www.w3.org/2000/svg" xmlns:xlink="http://www.w3.org/1999/xlink" x="0px" y="0px" viewBox="0 0 1015.9 557.1"
	 style="enable-background:new 0 0 1015.9 557.1;" xml:space="preserve">
<style type="text/css">
	.st0{fill:#f5ead0;}
	.st1{fill:#F2F2F2;}
	.st2{fill:#2F2E41;}
	.st3{fill:#F9A9A9;}
	.st4{fill:#01A6C7;}
	.st5{opacity:0.1;enable-background:new    ;}
	.st6{fill:#3F3D56;}
</style>
<g>
	<path class="st0" d="M1007,468.2L1007,468.2c-0.8,0.7-1.7,1.4-2.5,2c-14.7,10.5-24.7,17.9-42.8,21.7c-34,7.2-68.1,13.8-102.4,19.8
		c-66.8,11.7-134,21.2-201.5,28.4c-137.1,14.7-275,19.9-412.7,15.6c-45.9-1.4-90.1-3-132.2-23.2c-30.7-14.8-56.6-38.2-75.8-66.2
		c-19.6-28.4-31.4-61.9-35.5-96.4c9.5-4.2,19.6-6.8,30-7.8c35.9-3.4,71.2,9.7,103.8,25s64.7,33.1,100,40.2
		c52.1,10.4,105.8-3.7,155.8-21.8s99.1-40.4,151.7-47.3c70.6-9.2,141.5,10.2,210.1,29.5c73.1,20.5,146.1,40.9,219.2,61.4
		c10.4,2.9,21.3,6,29.4,13.2C1003.6,464,1005.4,466,1007,468.2z"/>
	<path class="st1" d="M1007,468.2L1007,468.2c-0.8,0.7-1.7,1.4-2.5,2c-9.2,6.6-16.6,11.9-25.2,16c-29.8,2.9-59.6,5.5-89.4,7.6
		c-76.8,5.5-153.8,8.4-230.9,8.8c-156.5,0.8-321,5.7-458-70.3c-45.6-25.3-111.6,26.6-156.8-1.2c-13-8-25.1-17.4-36.1-28.1
		c-3-10.9-5.1-21.9-6.4-33.1C-2,339.6,0.5,309,9.1,279.8c4.2-14,9.8-27.5,16.9-40.2c21,7.5,41.1,18.4,60.2,29.8
		c35.1,21,69.3,44.9,108.4,57c57.6,17.8,120,8,178.5-6.7s116.6-34.2,176.9-35.9c80.9-2.2,158.7,27.9,234,57.5
		c75.5,29.7,151,59.5,226.6,89.2c1.7,4.5,3.1,9.1,4.5,13.7C1017.7,453.7,1013.8,462.2,1007,468.2z"/>
	<path class="st0" d="M223.8,176.8c-6.6-4.5-6-14.3,1-18.1c0.1-0.1,0.3-0.2,0.4-0.2c0.4-1.7,0.7-3.4,1.1-5.1
		c2.1,2.2,6.1,1.7,7.8-0.8c-5.6-12-13-23-21.9-32.8c-4-4.4-4.1-11.1-0.2-15.7l0.1-0.1c5-1.7,9.8-4.1,14.1-7.1
		c-14.9-23.9-43.3-42.9-50-70.3c-20.3,21.8-22.6,29.5-42.9,51.3c0,0-19.2,17.4-23.4,26.7c1,1.1,10.1,3.6,10.5,5.7
		c7,0.6,19-7.1,19-7.1s-26.3,28.1-34.3,45.4c-0.7,1.6-1.4,3.3-0.8,4.9c0.5,1.3,2.2,2,3.3,1.5c-1.3,1.3-2.4,2.8-3.1,4.5
		c4.8,3,11,2.4,15.1-1.5c-1.1,2.1-2.2,4.2-3.3,6.2l0,0c4.8,1.6,7.4,6.7,5.8,11.5c-0.5,1.5-1.3,2.8-2.4,3.8
		c-6.9,6.4-13.2,13.2-15.5,17.6c-2.2,4.2,20.2,9.2,25.2,9c5-0.2,9.7-2.4,14.3-4.6c-0.2,2.1,0.2,4.2,1.1,6c5,1.2,10.3,0.4,14.7-2.4
		c-0.2,4.1,5,6.4,8.6,5.3c-1.8,28.6-0.5,68.8,1.3,110.5h4.3V212.2c1.1,0.6,2.4,1,3.6,1.2c8.8,1.6,19.5,2.5,25.2-4.4
		c6.6,6.7,18.7,6.5,25.3-0.1c-0.6,1.1,0.3,3.1,1.8,3.4c1.7,0.4,3.4-0.7,4.9-1.6c6.6-4.4,13.3-8.9,19.9-13.3
		C246.1,191.9,234.5,184,223.8,176.8z"/>
	<path class="st0" d="M62,395.3c2,0.1,3.7-1.5,3.8-3.4c0-1.1-0.4-2.1-1.2-2.8c-0.1-0.4-0.2-0.6-0.2-1c0-0.1,0.1-0.2,0.1-0.2
		c2.1-4.9,7.8-7.2,12.7-5.2c2.3,1,4.2,2.9,5.2,5.2c2.9,7.1,6.7,14.1,7.6,21.6c0.4,3.3,0.2,6.6-0.5,9.9c6.9-15,10.4-31.3,10.5-47.8
		c0-4.1-0.2-8.3-0.7-12.4c-0.4-3.4-0.9-6.7-1.6-10c-3.7-18-11.6-35-23.1-49.3c-5.6-3-10.1-7.7-12.9-13.4c-1-2-1.7-4.2-2.1-6.5
		c0.6,0.1,1.3,0.1,1.9,0.2c0.2,0,0.4,0,0.6,0h0.1c2,0.1,3.6-1.4,3.7-3.4c0-0.9-0.2-1.7-0.8-2.4c-0.3-0.3-0.5-0.7-0.8-1
		c-0.4-0.5-0.8-1-1.2-1.5c0,0-0.1-0.1-0.1-0.2c-0.5-0.6-0.9-1.2-1.4-1.7c0.9-1.3,2-2.5,3.4-3.3c4.7-2.8,11.3-0.9,14.7,3.4
		c3.4,4.3,4.1,10.3,2.9,15.7c-1.2,4.6-3.1,8.9-5.7,12.8c0.3,0.3,0.5,0.6,0.8,1c4.7,6,8.8,12.5,12.2,19.4c-0.8-7.7,0.2-15.4,2.9-22.6
		c2.8-6.7,8-12.4,12.6-18.2c5.5-7,16.8-3.9,17.8,4.9c0,0.1,0,0.2,0,0.3c-0.7,0.4-1.4,0.8-2,1.2c-2.3,1.5-2.9,4.5-1.4,6.8
		c0.8,1.1,2,1.9,3.3,2.1h0.1c-0.2,2.5-0.7,4.9-1.3,7.3c-3.6,13.5-12.6,24.9-25,31.5c-0.4,0.2-0.8,0.4-1.2,0.6
		c1.8,5.2,3.3,10.5,4.4,15.9c1,4.8,1.7,9.6,2,14.4c0.5,6.1,0.4,12.2-0.1,18.3v-0.2c1.3-6.8,4.9-12.9,10.2-17.3
		c7.9-6.5,19-8.9,27.5-14c2.6-1.7,6.1-0.9,7.8,1.7c0.7,1.1,1,2.5,0.8,3.8c0,0.1,0,0.2,0,0.2c-1.3,0.5-2.5,1.1-3.7,1.8
		c-0.7,0.4-1.4,0.8-2,1.2c-2.3,1.5-2.9,4.5-1.4,6.8c0.8,1.1,2,1.9,3.3,2.1h0.1c0.1,0,0.1,0,0.2,0c-2.2,5.2-5.2,9.9-9,14.1
		c-9.4,10.1-22.6,15.9-36.4,16l0,0c-1.9,8.1-4.5,15.9-8,23.4H62.7c-0.1-0.3-0.2-0.6-0.3-1c2.7,0.2,5.3,0,7.9-0.5
		c-2.1-2.6-4.3-5.2-6.4-7.9c0,0-0.1-0.1-0.1-0.2c-1.1-1.3-2.2-2.7-3.2-4l0,0C60.5,403.4,61,399.3,62,395.3L62,395.3z"/>
	<path class="st0" d="M917,423.3c2,0.1,3.7-1.5,3.8-3.4c0-1.1-0.4-2.1-1.2-2.8c-0.1-0.4-0.2-0.6-0.2-1c0-0.1,0.1-0.2,0.1-0.2
		c2.1-4.9,7.8-7.2,12.7-5.2c2.3,1,4.2,2.9,5.2,5.2c2.9,7.1,6.7,14.1,7.6,21.6c0.4,3.3,0.2,6.6-0.5,9.9c6.9-15,10.4-31.3,10.5-47.8
		c0-4.1-0.2-8.3-0.7-12.4c-0.4-3.4-0.9-6.7-1.6-10c-3.7-18-11.6-35-23.1-49.3c-5.6-3-10.1-7.7-12.9-13.4c-1-2-1.7-4.2-2.1-6.5
		c0.6,0.1,1.3,0.1,1.9,0.2c0.2,0,0.4,0,0.6,0h0.1c2,0.1,3.6-1.4,3.7-3.4c0-0.9-0.2-1.7-0.8-2.4c-0.3-0.3-0.5-0.7-0.8-1
		c-0.4-0.5-0.8-1-1.2-1.5c0,0-0.1-0.1-0.1-0.2c-0.5-0.6-0.9-1.2-1.4-1.7c0.9-1.3,2-2.5,3.4-3.3c4.7-2.8,11.3-0.9,14.7,3.4
		s4.1,10.3,2.9,15.7c-1.2,4.6-3.1,8.9-5.7,12.8c0.3,0.3,0.5,0.6,0.8,1c4.7,6,8.8,12.5,12.2,19.4c-0.8-7.7,0.2-15.4,2.9-22.6
		c2.8-6.7,8-12.4,12.6-18.2c5.5-7,16.8-3.9,17.8,4.9c0,0.1,0,0.2,0,0.3c-0.7,0.4-1.4,0.8-2,1.2c-2.3,1.5-2.9,4.5-1.4,6.8
		c0.8,1.1,2,1.9,3.3,2.1h0.1c-0.2,2.5-0.7,4.9-1.3,7.3c-3.6,13.5-12.6,24.9-25,31.5c-0.4,0.2-0.8,0.4-1.2,0.6
		c3.4,9.8,5.6,20,6.4,30.3c0.5,6.1,0.4,12.2-0.1,18.3v-0.2c1.3-6.8,4.9-12.9,10.2-17.3c7.9-6.5,19-8.9,27.5-14
		c2.6-1.7,6.1-0.9,7.8,1.7c0.7,1.1,1,2.5,0.8,3.8c0,0.1,0,0.2,0,0.2c-1.3,0.5-2.5,1.1-3.7,1.8c-0.7,0.4-1.4,0.8-2,1.2
		c-2.3,1.5-2.9,4.5-1.4,6.8c0.8,1.1,2,1.9,3.3,2.1h0.1c0.1,0,0.1,0,0.2,0c-2.2,5.2-5.2,9.9-9,14.1c-9.4,10.1-22.6,15.9-36.4,16l0,0
		c-1.9,8.1-4.5,15.9-8,23.4h-28.7c-0.1-0.3-0.2-0.6-0.3-1c2.7,0.2,5.3,0,7.9-0.5c-2.1-2.6-4.3-5.2-6.4-7.9c0,0-0.1-0.1-0.1-0.2
		c-1.1-1.3-2.2-2.7-3.2-4l0,0C915.5,431.4,916,427.3,917,423.3L917,423.3z"/>
	<path class="st0" d="M576,340.3c2,0.1,3.7-1.5,3.8-3.4c0-1.1-0.4-2.1-1.2-2.8c-0.1-0.4-0.2-0.6-0.2-1c0-0.1,0.1-0.2,0.1-0.2
		c2.1-4.9,7.8-7.2,12.7-5.2c2.3,1,4.2,2.9,5.2,5.2c2.9,7.1,6.7,14.1,7.6,21.6c0.4,3.3,0.2,6.6-0.5,9.9c6.9-15,10.4-31.3,10.5-47.8
		c0-4.1-0.2-8.3-0.7-12.4c-0.4-3.4-0.9-6.7-1.6-10c-3.7-18-11.6-35-23.1-49.3c-5.6-3-10.1-7.7-12.9-13.4c-1-2-1.7-4.2-2.1-6.5
		c0.6,0.1,1.3,0.1,1.9,0.2c0.2,0,0.4,0,0.6,0h0.1c2,0.1,3.6-1.4,3.7-3.4c0-0.9-0.2-1.7-0.8-2.4c-0.3-0.3-0.5-0.7-0.8-1
		c-0.4-0.5-0.8-1-1.2-1.5c0,0-0.1-0.1-0.1-0.2c-0.5-0.6-0.9-1.2-1.4-1.7c0.9-1.3,2-2.5,3.4-3.3c4.7-2.8,11.3-0.9,14.7,3.4
		c3.4,4.3,4.1,10.3,2.9,15.7c-1.2,4.6-3.1,8.9-5.7,12.8c0.3,0.3,0.5,0.6,0.8,1c4.7,6,8.8,12.5,12.2,19.4c-0.8-7.7,0.2-15.4,2.9-22.6
		c2.8-6.7,8-12.4,12.6-18.2c5.5-7,16.8-3.9,17.8,4.9c0,0.1,0,0.2,0,0.3c-0.7,0.4-1.4,0.8-2,1.2c-2.3,1.5-2.9,4.5-1.4,6.8
		c0.8,1.1,2,1.9,3.3,2.1h0.1c-0.2,2.5-0.7,4.9-1.3,7.3c-3.6,13.5-12.6,24.9-25,31.5c-0.4,0.2-0.8,0.4-1.2,0.6
		c3.5,9.8,5.6,20,6.4,30.3c0.5,6.1,0.4,12.2-0.1,18.3v-0.2c1.3-6.8,4.9-12.9,10.2-17.3c7.9-6.5,19-8.9,27.5-14
		c2.6-1.7,6.1-0.9,7.8,1.7c0.7,1.1,1,2.5,0.8,3.8c0,0.1,0,0.2,0,0.2c-1.3,0.5-2.5,1.1-3.7,1.8c-0.7,0.4-1.4,0.8-2,1.2
		c-2.3,1.5-2.9,4.5-1.4,6.8c0.8,1.1,2,1.9,3.3,2.1h0.1c0.1,0,0.1,0,0.2,0c-2.2,5.2-5.2,9.9-9,14.1c-9.4,10.1-22.6,15.9-36.4,16l0,0
		c-1.9,8.1-4.5,15.9-8,23.4h-28.7c-0.1-0.3-0.2-0.6-0.3-1c2.7,0.2,5.3,0,7.9-0.5c-2.1-2.6-4.3-5.2-6.4-7.9c0,0-0.1-0.1-0.1-0.2
		c-1.1-1.3-2.2-2.7-3.2-4l0,0C574.5,348.4,575,344.3,576,340.3L576,340.3z"/>
	<polygon class="st2" points="318.9,526.9 317.9,528.8 318.6,528.9 	"/>
</g>
<g>
	<path class="st2" d="M477.3,211.3c-1.5,9-8.4,16-11.6,24.5c-2.9,7.6-2.8,16.1-1,24.1c1.7,8,4.9,15.5,8,23.1c1.2,3,1.7,4.3,2,5.3
		c0,0,0.2,0.7,0.4,1.4c0.6,2.5,0.4,10.8-1.2,21.9c18.2,0,36.4,0.1,54.5,0.1c0.4-4.2,0.9-7.5,1.4-9.9c0.9-4.9,1.5-6,1.7-9.6
		c0.1-2.3,0-4.5,0.4-6.8s1.4-4.4,2-6.7c0.9-3.6,0.5-7.4,0.8-11.1c0.5-6.3,2.9-12.4,2.5-18.7c-0.2-2.8-0.9-5.8,0.2-8.4
		c0.5-1.1,1.2-2,1.8-3c1.4-2.4,1.9-5.2,1.5-7.9c-0.1-1.2-0.6-2.4-1.4-3.4c-0.7-0.7-1.4-1.2-2.3-1.7c-9.6-5.1-21-5.3-31.3-8.6
		c-6.8-2.1-13.6-5.7-20.6-4.6C482.4,211.8,479.9,210.9,477.3,211.3z"/>
	<path class="st2" d="M466.3,467.4c0,0-6.9,28.9-0.6,30.1s37,0.8,44.5,2.1c7.5,1.3,23.2-0.8,23.2-6.5c0-5.6-16.3-9.4-16.3-9.4
		s-23.2-12.5-23.8-13.2C492.7,469.9,466.3,467.4,466.3,467.4z"/>
	<path class="st2" d="M473.7,261.4c0,0,2.2,25.5,2.2,27.7s-13.5,120.7-10.5,144.7s-0.3,31.7-0.3,36.2s24.3,2.8,24.3,2.8l26.2-165.7
		l-13.5-49.5L473.7,261.4z"/>
	<path class="st2" d="M475.1,473.8c0,0-6.3,22.6,0,23.8c6.3,1.3,37-1.4,44.5-0.2c7.5,1.3,23.2,1.4,23.2-4.2s-16.3-9.4-16.3-9.4
		s-23.2-12.5-23.8-13.2C502.1,470,475.1,473.8,475.1,473.8z"/>
	<g>
		<path class="st2" d="M467,231.4c0,0-9,21.7,1.5,33c10.5,11.2,22.5,33.7,22.5,35.2s-21,150.7-18,160.5c3,9.7,2.2,15.7,1.5,17.2
			S482,487,491,487s22.5-6.7,24-12.7s-2.2-57.7-1.5-67.5c0.7-9.7,30.7-165.7,27-169.5C536.7,233.7,467,231.4,467,231.4z"/>
	</g>
	<path class="st3" d="M508.2,46.2c0,0,5.2,27.7,1.5,30.7c-3.7,3,28.5,7.5,28.5,7.5s3.7-36.7,4.5-40.5
		C543.5,40.2,508.2,46.2,508.2,46.2z"/>
	<circle class="st3" cx="524" cy="33.5" r="25.5"/>
	<path class="st4" d="M542.7,82.2c0,0,4.8-26.4-31.9-18.9c0,0-33.5,27.5-32.1,53c1.5,25.5-11.8,99.4-10.3,104.6s-9,12-4.5,14.2
		s85.5,15.7,87.7,0s-0.7-55.5,0.7-63c1.5-7.5,0-70.5-4.5-78S542.7,82.2,542.7,82.2z"/>
	<path class="st3" d="M527,265.2c0,0-11.2,42.7,3,42.7s13.5-44.2,13.5-44.2L527,265.2z"/>
	<path class="st4" d="M536,89.7c0,0-25.5-1.5-27.7,36s-1.5,72.7-1.5,73.5s10.5,72,20.2,72s17.2-1.5,19.5-5.2c2.2-3.7-6-57.7-6-57.7
		s-3.7-57,2.2-75S549.5,92,536,89.7z"/>
	<polyline class="st5" points="507.1,136 499.7,216.1 524.4,271.6 508.3,214.9 507.1,134.8 	"/>
	<polygon class="st5" points="542.9,144.6 544.7,239.1 537.9,187.8 	"/>
	<path class="st6" d="M537.1,28c-1,1.3-2.3,2.3-3.1,3.7c-0.6,1.1-0.9,2.4-1.7,3.4c-1.6,2-5,2-6.6,0c-0.3-0.4-0.6-0.8-1-1.2
		c-0.9-0.7-2.2-0.5-3.2-0.1c-2.7,1.1-4.7,3.6-5.1,6.5c-0.5,3.5,1.1,6.9,1.2,10.5c0,0.6-0.1,1.3-0.3,1.9c-0.6,1.3-2.2,1.7-3.6,2
		c-3,0.6-6.1,1-9.2,1.2c-0.9-3.1-3.3-5.5-5.1-8.2c-3.1-4.8-4.4-10.5-5.6-16.1c-1.1-5.2-2.2-10.8,0-15.6c0.9-2,2.3-3.7,3.8-5.3
		c3.1-3.4,6.8-6.4,11-8.1c4.3-1.8,9.2-2.2,13.5-0.5c0.5,0.3,1.1,0.4,1.7,0.5c0.7,0,1.5-0.2,2.1-0.5c3.4-1.4,7.1-2.7,10.6-1.7
		c1.3,0.4,2.5,1,3.6,1.8c5,3.5,8.5,9.3,8.4,15.4c0,0.7-0.1,1.4-0.4,2c-0.5,0.9-1.5,1.3-2.5,1.5c-2.1,0.4-4.6-0.2-5.7-2.1
		c-0.6-0.9-0.9-2.2-1.9-2.5s-2,0.8-2.1,1.8C535.5,22.4,540.4,23.8,537.1,28z"/>
</g>
</svg>
