<svg id="Layer_1" data-name="Layer 1" xmlns="http://www.w3.org/2000/svg" viewBox="0 0 44.66 44.66"><defs><style>.cls-1{fill:#403e56;}</style></defs><title>Linkedin</title><path class="cls-1" d="M41.13.25,4.07,0A3.62,3.62,0,0,0,.25,3.42v0L0,40.58a3.9,3.9,0,0,0,3.77,3.83l37.05.25a3.71,3.71,0,0,0,3.59-3.78l.25-37.15A3.42,3.42,0,0,0,41.33.25h-.2ZM13.79,37.09l-6.36,0,.13-19.78,6.36,0ZM11,14.28h-.05a3.49,3.49,0,1,1,.05,0ZM37,37.24l-6.36,0,.07-10.81c0-2.6-.9-4.37-3.2-4.39a3.49,3.49,0,0,0-3.28,2.33A4.35,4.35,0,0,0,24,25.89L24,37.16l-6.36,0,.13-19.78,6.36.05,0,2.75A6.46,6.46,0,0,1,29.84,17c4.18,0,7.32,2.8,7.28,8.74Z"/></svg>