<?xml version="1.0" encoding="utf-8"?>
<!-- Generator: Adobe Illustrator 23.1.0, SVG Export Plug-In . SVG Version: 6.00 Build 0)  -->
<svg version="1.1" id="dream" xmlns="http://www.w3.org/2000/svg" xmlns:xlink="http://www.w3.org/1999/xlink" x="0px" y="0px"
	 viewBox="0 0 528.6 367.2" style="enable-background:new 0 0 528.6 367.2;" xml:space="preserve">
<style type="text/css">
	.pursue0{fill:#FFB6B6;}
	.pursue1{fill:#6C63FF;}
	.pursue2{fill:#E6E6E6;}
	.pursue3{fill:#CCCCCC;}
	.pursue4{fill:#3F3D56;}
	.pursue5{fill:#FF6584;}
	.pursue6{fill:#2F2E41;}
</style>
<g>
	<path class="pursue0" d="M265.9,112.8l-15,3.4c-1.7,9.9-1.4,50-1.4,50l-1.3,38.4c-2.1,3.1-1.4,7.3,1.7,9.5c3.1,2.1,7.3,1.4,9.5-1.7
		c1.4-2,1.6-4.6,0.6-6.8l2-47.4L265.9,112.8z"/>
	<path class="pursue1" d="M248.5,74.2L248.5,74.2c8.8-1.9,17.4,3.7,19.3,12.5c0.2,1,0.3,2,0.4,3l0.2,9.7c0,0,3.8,49.5,0.3,59.2l-5,27.9
		l-15.9,2l-0.8-29.4c0,0,4.7-32.4-0.4-37.7c-3.1-3.2-8.1-16.6-10.6-28C234.2,84.6,239.7,76,248.5,74.2
		C248.5,74.2,248.5,74.2,248.5,74.2z"/>
	<path class="pursue2" d="M136.8,336.6c-0.2,0-0.4-0.1-0.5-0.4l-22.8-164.3L67.7,336.3c-0.2,0.3-0.5,0.3-0.8,0.1
		c-0.3-0.2-0.3-0.5-0.1-0.8l46.4-165.3c0.1-0.2,0.3-0.3,0.5-0.2c0.2,0,0.4,0.2,0.4,0.4l23.2,165.3c0.1,0.3-0.1,0.6-0.3,0.7
		C136.9,336.6,136.8,336.6,136.8,336.6L136.8,336.6z"/>
	<path class="pursue2" d="M103.9,336.6c-0.3,0-0.6-0.2-0.6-0.5c0,0,0-0.1,0-0.1l9.7-165.3c0-0.3,0.3-0.5,0.6-0.5c0.3,0,0.5,0.3,0.5,0.6
		l-9.7,165.3C104.4,336.4,104.2,336.6,103.9,336.6z"/>
	<path class="pursue2" d="M188.1,139c0.7,3-0.5,6.1-3,7.8c-0.4,0.3-0.8,0.5-1.2,0.6L81.3,189.6c-3.7,1.5-7.9-0.2-9.4-3.9
		c-0.1-0.3-0.2-0.6-0.3-1c-0.9-3.5,0.9-7,4.2-8.4l102.6-42.2c0,0,0,0,0.1,0c3.7-1.5,7.9,0.3,9.3,4C187.9,138.4,188,138.7,188.1,139z
		"/>
	<path class="pursue2" d="M82.7,162.4L82.7,162.4c1.6-0.4,3.3,0.6,3.7,2.2l2,8c0.4,1.6-0.6,3.3-2.2,3.7l0,0c-1.6,0.4-3.3-0.6-3.7-2.2
		l-2-8C80.1,164.5,81.1,162.9,82.7,162.4L82.7,162.4L82.7,162.4z"/>
	<path class="pursue2" d="M76.6,162.9l11.8-3c1-0.3,2.1,0.4,2.3,1.4l0,0c0.3,1-0.4,2.1-1.4,2.3l-11.8,3c-1,0.3-2.1-0.4-2.3-1.4l0,0l0,0
		C74.9,164.2,75.5,163.1,76.6,162.9L76.6,162.9z"/>
	<path class="pursue3" d="M72.1,186.2c-1.3-2.8-0.8-6,1.4-8.2c3.5,0.1,6.7,2.1,8.2,5.3c0.9,1.8,1.2,3.8,0.8,5.8c-3.3,2.2-7.8,1.3-9.9-2
		C72.3,186.8,72.2,186.5,72.1,186.2z"/>
	
		<ellipse transform="matrix(3.896723e-02 -0.9992 0.9992 3.896723e-02 -123.2568 561.6346)" class="pursue2" cx="230.4" cy="344.9" rx="1.4" ry="9.5"/>
	
		<ellipse transform="matrix(3.896723e-02 -0.9992 0.9992 3.896723e-02 -71.2996 626.8073)" class="pursue4" cx="290.2" cy="350.5" rx="1.4" ry="9.5"/>
	
		<ellipse transform="matrix(3.896723e-02 -0.9992 0.9992 3.896723e-02 -155.8522 546.3768)" class="pursue5" cx="206.1" cy="354.2" rx="1.4" ry="9.5"/>
	
		<ellipse transform="matrix(3.896723e-02 -0.9992 0.9992 3.896723e-02 -102.8004 619.5311)" class="pursue5" cx="270.7" cy="363.2" rx="1.4" ry="9.5"/>
	
		<ellipse transform="matrix(4.819992e-03 -1 1 4.819992e-03 -175.6492 536.9523)" class="pursue2" cx="181.9" cy="356.7" rx="1.3" ry="4.2"/>
	
		<ellipse transform="matrix(4.816708e-03 -1 1 4.816708e-03 -157.8932 565.5111)" class="pursue2" cx="205.2" cy="362.1" rx="1.3" ry="4.2"/>
	
		<ellipse transform="matrix(4.816708e-03 -1 1 4.816708e-03 -197.6969 529.5424)" class="pursue4" cx="167.2" cy="364.1" rx="1.3" ry="4.2"/>
	
		<ellipse transform="matrix(4.816708e-03 -1 1 4.816708e-03 -109.0954 600.2595)" class="pursue2" cx="247" cy="354.9" rx="1.3" ry="4.2"/>
	
		<ellipse transform="matrix(4.816708e-03 -1 1 4.816708e-03 -130.8618 567.9663)" class="pursue5" cx="219.9" cy="349.7" rx="1.3" ry="4.2"/>
	
		<ellipse transform="matrix(4.816708e-03 -1 1 4.816708e-03 -83.1332 610.1592)" class="pursue4" cx="265" cy="346.8" rx="1.3" ry="4.2"/>
	
		<ellipse transform="matrix(4.816708e-03 -1 1 4.816708e-03 -132.6983 591.3218)" class="pursue4" cx="230.7" cy="362.3" rx="1.3" ry="4.2"/>
	<polygon class="pursue0" points="214.6,358.5 206.3,358.5 202.3,326.4 214.6,326.4 	"/>
	<path class="pursue6" d="M214.9,367.2l-25.6,0v-0.3c0-5.5,4.5-10,10-10h0l4.7-3.5l8.7,3.5h2.2L214.9,367.2z"/>
	<polygon class="pursue0" points="252.5,358.5 244.1,358.5 240.2,326.4 252.5,326.4 	"/>
	<path class="pursue6" d="M252.7,367.2l-25.6,0v-0.3c0-5.5,4.5-10,10-10h0l4.7-3.5l8.7,3.5h2.2L252.7,367.2z"/>
	<path class="pursue6" d="M194.4,152.4c0,0-13.5,16.7-10.8,21s6.8,2.8,2.6,7.4s-5.9,4.6-2.9,7.9s5.5,76.3,5.5,76.3l13.4,75.9l14.8,1.3
		c0,0,2.8-9.3,2.8-12.9s0.1-0.5,0.1-7.9s-2.7-1.7-0.1-8.8s5.8-28,0-38.1s-1.2-1.2-1.2-1.2l4.5-68.8l8.6,70.8c0,0,0,24.4,4.2,42
		l0.7,24.9l18.1-0.7c0,0,4.7-7.4,3-15.8s5-12.6,5-16.8s-0.4-44.4-0.4-44.4l-3.9-83.7c0,0,3.4-19-4.1-26.6S194.4,152.4,194.4,152.4z"
		/>
	<path class="pursue1" d="M210.5,63.6l11.6-13.1l18.3,2L252.2,69l0,0c13,3,15.4,13.6,13.1,26.7c-4.6,26.2-15.8,44.6-10.7,57.5
		c7.8,19.7,4,34.8-14.6,32s-61.4-21-49.3-33s8.4-27.5,8.4-27.5l1.4-37.1C198.3,75.9,198.6,64.8,210.5,63.6L210.5,63.6z"/>
	<path class="pursue0" d="M204.9,108.5l-12.9-8.3c-8.3,5.7-36.7,34-36.7,34l-28.3,26c-3.7,0.6-6.2,4.1-5.6,7.8c0.6,3.7,4.1,6.2,7.8,5.6
		c2.4-0.4,4.4-2.1,5.2-4.3l35.2-31.8L204.9,108.5z"/>
	<path class="pursue1" d="M220.4,69L220.4,69c7.5,4.9,9.5,15,4.6,22.5c-0.6,0.8-1.2,1.6-1.9,2.3l-6.8,7c0,0-32.7,37.4-42,41.7l-23.4,16
		l-12.6-9.9l20.4-21.1c0,0,26.4-19.4,26.6-26.7c0.1-4.5,6.1-17.4,12.6-27.2C202.8,66.1,212.9,64.1,220.4,69
		C220.3,69,220.4,69,220.4,69z"/>
	<circle id="a4725208-37e7-4bba-8b44-e2dd7653a02c" class="pursue0" cx="234.6" cy="27.2" r="19"/>
	<path class="pursue6" d="M224.8,5.5c0.8-1.4,1.9-2.6,3.2-3.5c2.5-1.5,5.7-0.6,7.1,1.9c0.1,0.2,0.2,0.3,0.3,0.5c0-0.9,0.2-1.8,0.7-2.6
		c1.1,1.1,2.3,2,3.7,2.7l-2-4.4c7.5-0.6,12.9,1.5,15.3,7.1c0.7,1.6,3.3,1.6,4,3.2c0.8,1.7-0.1,4.3-1.9,4.5c3.4-0.1,2.3,2.8,3.3,6.2
		c1,3.4,0.4,7.3-0.7,10.8c-1.4,4.6-5.5,7.6-9.4,9.9c-2.6,1.5-7.7,3.9-7.8,3.9c-14.2,7.5-23.3-7.8-19.9-22.8c0.8-3.4,3.5-7.1,1.5-9.6
		c-1.5-2-4.5-1.6-6.9-1.1C216.3,9,222.9,8.4,224.8,5.5z"/>
	
		<ellipse transform="matrix(3.896723e-02 -0.9992 0.9992 3.896723e-02 89.1823 785.015)" class="pursue2" cx="452.7" cy="346.1" rx="1.4" ry="10.4"/>
	
		<ellipse transform="matrix(3.896723e-02 -0.9992 0.9992 3.896723e-02 146.421 856.1257)" class="pursue4" cx="518.3" cy="351.9" rx="1.4" ry="10.4"/>
	
		<ellipse transform="matrix(3.897002e-02 -0.9992 0.9992 3.897002e-02 54.4869 767.4012)" class="pursue5" cx="426.2" cy="355.4" rx="1.4" ry="10.4"/>
	
		<ellipse transform="matrix(3.896723e-02 -0.9992 0.9992 3.896723e-02 113.2466 846.968)" class="pursue5" cx="496.9" cy="364.6" rx="1.4" ry="10.4"/>
	
		<ellipse transform="matrix(8.327343e-03 -1 1 8.327343e-03 38.6158 754.5244)" class="pursue2" cx="399.7" cy="357.8" rx="1.3" ry="4.6"/>
	
		<ellipse transform="matrix(8.327343e-03 -1 1 8.327343e-03 58.4198 785.3878)" class="pursue2" cx="425.2" cy="363.2" rx="1.3" ry="4.6"/>
	
		<ellipse transform="matrix(8.329961e-03 -1 1 8.329961e-03 15.3133 745.6636)" class="pursue4" cx="383.6" cy="365.1" rx="1.3" ry="4.6"/>
	
		<ellipse transform="matrix(8.329961e-03 -1 1 8.329961e-03 110.853 824.2806)" class="pursue2" cx="471" cy="356.3" rx="1.3" ry="4.6"/>
	
		<ellipse transform="matrix(8.329961e-03 -1 1 8.329961e-03 86.7012 789.3018)" class="pursue5" cx="441.3" cy="350.9" rx="1.3" ry="4.6"/>
	
		<ellipse transform="matrix(8.327343e-03 -1 1 8.327343e-03 138.3479 835.9521)" class="pursue4" cx="490.6" cy="348.2" rx="1.3" ry="4.6"/>
	
		<ellipse transform="matrix(8.327343e-03 -1 1 8.327343e-03 85.8479 813.7296)" class="pursue4" cx="453.2" cy="363.6" rx="1.3" ry="4.6"/>
	
		<ellipse transform="matrix(3.896723e-02 -0.9992 0.9992 3.896723e-02 -280.9044 399.7195)" class="pursue2" cx="67.4" cy="345.9" rx="1.4" ry="9.5"/>
	
		<ellipse transform="matrix(3.896723e-02 -0.9992 0.9992 3.896723e-02 -228.9472 464.8921)" class="pursue4" cx="127.2" cy="351.5" rx="1.4" ry="9.5"/>
	
		<ellipse transform="matrix(3.896723e-02 -0.9992 0.9992 3.896723e-02 -313.4999 384.4616)" class="pursue5" cx="43.1" cy="355.2" rx="1.4" ry="9.5"/>
	
		<ellipse transform="matrix(3.896723e-02 -0.9992 0.9992 3.896723e-02 -260.448 457.6159)" class="pursue5" cx="107.7" cy="364.2" rx="1.4" ry="9.5"/>
	
		<ellipse transform="matrix(4.819992e-03 -1 1 4.819992e-03 -338.8643 374.9491)" class="pursue2" cx="18.9" cy="357.7" rx="1.3" ry="4.2"/>
	
		<ellipse transform="matrix(4.816708e-03 -1 1 4.816708e-03 -321.108 403.5082)" class="pursue2" cx="42.2" cy="363.1" rx="1.3" ry="4.2"/>
	
		<ellipse transform="matrix(4.816708e-03 -1 1 4.816708e-03 -360.9118 367.5394)" class="pursue4" cx="4.2" cy="365.1" rx="1.3" ry="4.2"/>
	
		<ellipse transform="matrix(4.816708e-03 -1 1 4.816708e-03 -294.0766 405.9633)" class="pursue5" cx="56.9" cy="350.7" rx="1.3" ry="4.2"/>
	
		<ellipse transform="matrix(4.816708e-03 -1 1 4.816708e-03 -246.3482 448.1563)" class="pursue4" cx="102" cy="347.8" rx="1.3" ry="4.2"/>
	
		<ellipse transform="matrix(4.816708e-03 -1 1 4.816708e-03 -295.9131 429.3188)" class="pursue4" cx="67.7" cy="363.3" rx="1.3" ry="4.2"/>
	
		<ellipse transform="matrix(3.897002e-02 -0.9992 0.9992 3.897002e-02 -38.2146 684.3385)" class="pursue5" cx="336.7" cy="362" rx="1.4" ry="10.4"/>
	
		<ellipse transform="matrix(8.327343e-03 -1 1 8.327343e-03 -52.9724 667.1596)" class="pursue2" cx="309.9" cy="360.3" rx="1.3" ry="4.6"/>
	
		<ellipse transform="matrix(3.896723e-02 -0.9992 0.9992 3.896723e-02 -6.8106 708.957)" class="pursue4" cx="365.2" cy="358" rx="1.4" ry="10.4"/>
	
		<ellipse transform="matrix(3.896723e-02 -0.9992 0.9992 3.896723e-02 -32.0565 670.5526)" class="pursue2" cx="332.6" cy="351.9" rx="1.4" ry="10.4"/>
</g>
</svg>
