<?xml version="1.0" encoding="utf-8"?>
<!-- Generator: Adobe Illustrator 23.1.0, SVG Export Plug-In . SVG Version: 6.00 Build 0)  -->
<svg version="1.1" id="Layer_1" xmlns="http://www.w3.org/2000/svg" xmlns:xlink="http://www.w3.org/1999/xlink" x="0px" y="0px"
	 viewBox="0 0 516.4 162.1" style="enable-background:new 0 0 516.4 162.1;" xml:space="preserve" class="sky">
<style type="text/css">
	.st0{fill:#6C63FF;}
	.st1{fill:#FF6584;}
	.st2{fill:#FFFFFF;}
	.st3{fill:#E6E6E6;}
	.st4{fill:#CBCBCB;}
	.st5{opacity:0.8;fill:url(#SVGID_1_);enable-background:new    ;}
	.st6{opacity:0.8;fill:url(#SVGID_2_);enable-background:new    ;}
	.st7{fill:#3F3D56;}
</style>
<circle class="st0" cx="460.4" cy="33" r="10"/>
<circle class="st0" cx="332.4" cy="75" r="2"/>
<circle class="st0" cx="230.4" cy="114" r="2"/>
<circle class="st1" cx="117.4" cy="63" r="2"/>
<circle class="st2" cx="165.4" cy="13" r="2"/>
<circle class="st2" cx="499.4" cy="2" r="2"/>
<circle class="st2" cx="396.4" cy="36" r="2"/>
<circle class="st2" cx="514.4" cy="69" r="2"/>
<circle class="st2" cx="163.4" cy="102" r="2"/>
<circle class="st1" cx="10.4" cy="96" r="2"/>
<polygon class="st2" points="85.4,119.1 83.5,119.3 83.1,121.1 82.4,119.4 80.5,119.5 81.9,118.3 81.2,116.5 82.8,117.5 84.2,116.3 
	83.8,118.1 "/>
<polygon class="st2" points="326.4,13.1 324.5,13.3 324.1,15.1 323.4,13.4 321.5,13.5 322.9,12.3 322.2,10.5 323.8,11.5 325.2,10.3 
	324.8,12.1 "/>
<polygon class="st2" points="440.4,94.1 438.5,94.3 438.1,96.1 437.4,94.4 435.5,94.5 436.9,93.3 436.2,91.5 437.8,92.5 439.2,91.3 
	438.8,93.1 "/>
<polygon class="st2" points="228.4,71.1 226.5,71.3 226.1,73.1 225.4,71.4 223.5,71.5 224.9,70.3 224.2,68.5 225.8,69.5 227.2,68.3 
	226.8,70.1 "/>
<polygon class="st2" points="139.4,160.1 137.5,160.3 137.1,162.1 136.4,160.4 134.5,160.5 135.9,159.3 135.2,157.5 136.8,158.5 
	138.2,157.3 137.8,159.1 "/>
<polygon class="st2" points="516.4,158.1 514.5,158.3 514.1,160.1 513.4,158.4 511.5,158.5 512.9,157.3 512.2,155.5 513.8,156.5 
	515.2,155.3 514.8,157.1 "/>
<polygon class="st2" points="32.4,42.1 30.5,42.3 30.1,44.1 29.4,42.4 27.5,42.5 28.9,41.3 28.2,39.5 29.8,40.5 31.2,39.3 
	30.8,41.1 "/>
<path class="st3" d="M2.8,121.9c-2.5-1.2-3.5-4.2-2.3-6.6s4.2-3.5,6.6-2.3c2.5,1.2,3.5,4.2,2.3,6.6c-0.8,1.7-2.6,2.8-4.5,2.8
	C4.2,122.4,3.5,122.2,2.8,121.9z M4,114.5c-0.8,0.3-1.4,0.8-1.7,1.5v0c-0.7,1.5-0.1,3.3,1.4,4c1.5,0.7,3.3,0.1,4-1.4
	c0.7-1.5,0.1-3.3-1.4-4C5.6,114.3,4.7,114.3,4,114.5L4,114.5z"/>
<path class="st3" d="M399.5,117c0.5-2.7,3.1-4.5,5.8-4c2.7,0.5,4.5,3.1,4,5.8c-0.5,2.7-3.1,4.5-5.8,4c-1.9-0.3-3.4-1.7-3.9-3.6
	C399.4,118.5,399.3,117.8,399.5,117z M407.4,118.4c0.3-1.6-0.8-3.2-2.4-3.5c-1.6-0.3-3.2,0.8-3.5,2.4s0.8,3.2,2.4,3.5
	c0.4,0.1,0.9,0.1,1.3-0.1l0,0C406.3,120.5,407.2,119.6,407.4,118.4L407.4,118.4z"/>
<circle class="st3" cx="65" cy="31.1" r="25"/>
<circle class="st4" cx="62.5" cy="13.9" r="2.9"/>
<circle class="st4" cx="67.4" cy="42.6" r="2.9"/>
<circle class="st4" cx="78.5" cy="26.6" r="2"/>
<circle class="st4" cx="55.1" cy="33.2" r="6.6"/>
<linearGradient id="SVGID_1_" gradientUnits="userSpaceOnUse" x1="248.0934" y1="84.4481" x2="334.9034" y2="84.4481" gradientTransform="matrix(1 0 0 -1 -173.3513 186.8961)">
	<stop  offset="0" style="stop-color:#FFFFFF"/>
	<stop  offset="1" style="stop-color:#FFFFFF;stop-opacity:0.3"/>
</linearGradient>
<path class="st5" d="M76.7,152.9l33-38.6l33-38.6l18.6-21.8c1-1.2-0.6-3.1-1.6-1.9l-33,38.6l-33,38.6L75.1,151
	C74,152.2,75.6,154.1,76.7,152.9z"/>
<linearGradient id="SVGID_2_" gradientUnits="userSpaceOnUse" x1="301.0934" y1="113.4481" x2="387.9033" y2="113.4481" gradientTransform="matrix(1 0 0 -1 -173.3513 186.8961)">
	<stop  offset="0" style="stop-color:#FFFFFF"/>
	<stop  offset="1" style="stop-color:#FFFFFF;stop-opacity:0.3"/>
</linearGradient>
<path class="st6" d="M129.7,123.9l33-38.6l33-38.6l18.6-21.8c1-1.2-0.6-3.1-1.6-1.9l-33,38.6l-33,38.6L128.1,122
	C127,123.2,128.6,125.1,129.7,123.9L129.7,123.9z"/>
<path class="st7" d="M455,37c-1.1,0-2.1,0-3-0.1c-1.2-0.1-2.1-0.3-2.8-0.5c-0.7-0.2-1.1-0.5-1.1-0.8c-0.1-0.6,1.2-1.2,2.2-1.6l0,0.1
	c-1.5,0.5-2.2,1.1-2.2,1.5c0.1,0.6,1.4,1,3.8,1.2c2.4,0.2,5.5,0.1,8.9-0.2c3.3-0.3,6.4-0.9,8.7-1.5c2.3-0.6,3.5-1.3,3.5-1.9
	c0-0.5-1-0.9-2.7-1.1l0-0.1c1.2,0.2,2.7,0.5,2.8,1.2c0,0.3-0.3,0.7-0.9,1c-0.6,0.3-1.5,0.7-2.6,1c-2.3,0.7-5.4,1.2-8.7,1.5
	C458.8,36.9,456.8,37,455,37z"/>
<circle class="st7" cx="450" cy="36.5" r="1"/>
</svg>
