<?xml version="1.0" encoding="utf-8"?>
<!-- Generator: Adobe Illustrator 23.1.0, SVG Export Plug-In . SVG Version: 6.00 Build 0)  -->
<svg version="1.1" id="Layer_1" xmlns="http://www.w3.org/2000/svg" xmlns:xlink="http://www.w3.org/1999/xlink" x="0px" y="0px"
	 viewBox="0 0 102.3 80" style="enable-background:new 0 0 102.3 80;" xml:space="preserve">
<style type="text/css">
	.st0{fill:#FB8612;}
	.st1{fill:#E27910;}
	.st2{fill:#6C63FF;}
</style>
<circle class="st0" cx="50.7" cy="40" r="40"/>
<path class="st1" d="M24.8,64.4c-0.3-0.3-0.8-0.6-1.4-1.1c-8.6-7.6-10.3-22.1-7.5-33.1c0,0,4-21,23.3-25.7c1.7-0.4,2.1-0.2,2-0.1
	c-8.3,4.8-17.3,12.8-20.3,25.8c0,0-4.3,13.9,2,30c0.5,1.2,0.9,2.3,0.9,2.3C24.2,63,24.5,63.7,24.8,64.4z"/>
<g>
	<circle class="st2" cx="22.2" cy="47" r="2.2"/>
	<path class="st2" d="M89.8,61.4c-1.6,0-3.3-0.1-5.2-0.2c-9.8-0.6-22.6-2.8-35.9-6.1c-13.3-3.3-25.6-7.4-34.6-11.5
		c-4.4-2-7.7-3.9-10-5.6c-2.4-1.8-3.4-3.4-3.1-4.7c0.6-2.5,6.3-3.1,10.9-3.1l0,0.4c-6.3,0-10.1,1-10.5,2.8
		c-0.6,2.3,4.1,5.9,12.9,9.9c9,4.1,21.2,8.1,34.5,11.4c13.3,3.3,26,5.5,35.8,6.1c9.6,0.6,15.4-0.4,16-2.7c0.5-1.9-2.7-4.7-8.9-7.9
		l0.2-0.3c4.5,2.3,9.7,5.7,9,8.4c-0.3,1.3-2,2.2-4.9,2.7C94.3,61.2,92.2,61.4,89.8,61.4z"/>
</g>
<g>
	<path class="st2" d="M29.1,57.1c-4.2,0-8.2-0.1-11.7-0.4c-4.6-0.4-8.2-1-10.8-1.8c-2.7-0.9-4.2-2-4.3-3.3C2,49,6.9,46.7,11.1,45.2
		l0,0.3c-5.7,2.1-8.7,4.2-8.5,6c0.2,2.3,5.6,4,14.8,4.8c9.4,0.8,21.8,0.5,34.9-0.8c13.1-1.3,25.3-3.4,34.4-6
		c8.9-2.5,13.8-5.3,13.6-7.6c-0.2-1.9-3.1-3.4-9.8-4.3l0-0.6c4.8,0.7,9.9,2.2,10.1,4.8c0.1,1.3-1.1,2.7-3.6,4
		c-2.4,1.3-5.8,2.6-10.3,3.9c-9.1,2.6-21.3,4.8-34.5,6.1C44.2,56.7,36.2,57.1,29.1,57.1z"/>
	<circle class="st2" cx="100.2" cy="41" r="2.1"/>
</g>
</svg>
