<?xml version="1.0" encoding="utf-8"?>
<!-- Generator: Adobe Illustrator 23.1.0, SVG Export Plug-In . SVG Version: 6.00 Build 0)  -->
<svg version="1.1" id="Layer_1" xmlns="http://www.w3.org/2000/svg" xmlns:xlink="http://www.w3.org/1999/xlink" x="0px" y="0px"
	 viewBox="0 0 2155.6 291.4" style="enable-background:new 0 0 2155.6 291.4;" xml:space="preserve">
<style type="text/css">
	.st0{opacity:0.2;fill:url(#log-in-girl-7-ellipse9_1_);enable-background:new    ;}
	.st1{fill:url(#log-in-girl-7-ellipse10_1_);}
	.st2{fill:#1677B3;}
	.st3{fill:#F5EAD0;}
	.st4{fill:url(#log-in-girl-7-ellipse2_1_);}
	.st5{fill:#E6E6E6;}
	.st6{fill:#6C63FF;}
	.st7{fill:url(#SVGID_1_);}
	.st8{fill:url(#SVGID_2_);}
	.st9{fill:#F9BD10;}
	.st10{fill:#FF6584;}
	.st11{fill:#F6DEAD;}
	.st12{opacity:0.2;fill:url(#log-in-girl-7-ellipse1_1_);enable-background:new    ;}
	.st13{fill:url(#log-in-girl-7-ellipse2_2_);}
	.st14{fill:#61649F;}
	.st15{opacity:0.2;fill:url(#log-in-girl-7-ellipse1_2_);enable-background:new    ;}
	.st16{fill:url(#log-in-girl-7-ellipse2_3_);}
	.st17{fill:url(#SVGID_3_);}
	.st18{fill:url(#SVGID_4_);}
	.st19{opacity:0.8;fill:url(#SVGID_5_);enable-background:new    ;}
	.st20{fill:url(#SVGID_6_);}
	.st21{opacity:0.2;fill:url(#log-in-girl-7-ellipse9_3_);enable-background:new    ;}
	.st22{fill:url(#log-in-girl-7-ellipse10_3_);}
</style>
<g id="log-in-girl-7-star2" transform="matrix(1 0 0 1 -151.41200200000003 -11.64707700000002)">
	<g id="log-in-girl-7-ellipse9_ts" transform="translate(527.990021,235.740005) scale(0.579296,0.579296)">
		
			<linearGradient id="log-in-girl-7-ellipse9_1_" gradientUnits="userSpaceOnUse" x1="-11317.6621" y1="-810.2149" x2="-11145.0391" y2="-810.2149" gradientTransform="matrix(0.1944 0 0 -0.1944 1620.5862 -453.7519)">
			<stop  offset="0" style="stop-color:#C88EDA"/>
			<stop  offset="1" style="stop-color:#EEEDED"/>
		</linearGradient>
		<ellipse id="log-in-girl-7-ellipse9" class="st0" cx="-493.4" cy="-296.2" rx="86.3" ry="90.6"/>
	</g>
	<g id="log-in-girl-7-ellipse10_ts" transform="translate(527.989990,235.740013) scale(0.733169,0.733169)">
		
			<linearGradient id="log-in-girl-7-ellipse10_1_" gradientUnits="userSpaceOnUse" x1="-4596.9702" y1="-49.0487" x2="-4509.5864" y2="-49.0487" gradientTransform="matrix(0.3942 0 0 -0.3942 1378.2067 -253.3616)">
			<stop  offset="0" style="stop-color:#C88EDA"/>
			<stop  offset="1" style="stop-color:#EEEDED"/>
		</linearGradient>
		<ellipse id="log-in-girl-7-ellipse10" class="st1" cx="-389.9" cy="-234" rx="43.7" ry="45.9"/>
	</g>
</g>
<polygon class="st2" points="670.6,192 663,192.7 661.2,200.2 658.2,193.1 650.6,193.8 656.4,188.8 653.4,181.7 660,185.7 
	665.8,180.6 664,188.1 "/>
<polygon class="st3" points="10,46.6 6.2,47 5.3,50.7 3.8,47.2 0,47.5 2.9,45 1.4,41.5 4.7,43.4 7.6,40.9 6.7,44.6 "/>
<g>
	<g id="log-in-girl-7-ellipse2_ts_6_" transform="translate(295.100006,872.539978) scale(0.733169,0.733169)">
		
			<radialGradient id="log-in-girl-7-ellipse2_1_" cx="-2983.4678" cy="182.1038" r="16.7573" gradientTransform="matrix(0.3942 0 0 -0.3942 1193.1864 -774.9723)" gradientUnits="userSpaceOnUse">
			<stop  offset="0" style="stop-color:#919BFF"/>
			<stop  offset="1" style="stop-color:#133A94"/>
		</radialGradient>
		<ellipse id="log-in-girl-7-ellipse2_6_" class="st4" cx="17.3" cy="-846.6" rx="16.4" ry="17.2"/>
	</g>
</g>
<polygon class="st5" points="222.4,42.3 219.2,45.7 215.9,42.3 213.8,44.6 217,47.8 213.8,51.1 215.9,53.2 219.2,50 222.4,53.2 
	224.6,51.1 221.3,47.8 224.6,44.6 "/>
<circle class="st6" cx="406.2" cy="175.6" r="2.5"/>
<path class="st5" d="M365.2,90.6c-2.8,0-5-2.2-5-5s2.2-5,5-5s5,2.2,5,5c0,1.9-1.1,3.7-2.8,4.5C366.7,90.5,365.9,90.6,365.2,90.6z
	 M365.2,82.6c-1.7,0-3,1.3-3,3s1.3,3,3,3s3-1.3,3-3c0-0.5-0.1-0.9-0.3-1.3l0,0C367.4,83.3,366.3,82.6,365.2,82.6L365.2,82.6z"/>
<circle class="st6" cx="257.2" cy="137.6" r="2.5"/>
<circle class="st6" cx="40.8" cy="249.3" r="2.5"/>
<path class="st5" d="M207.4,173.5c-2.8,0-5-2.2-5-5s2.2-5,5-5s5,2.2,5,5c0,1.9-1.1,3.7-2.8,4.5C208.9,173.4,208.2,173.5,207.4,173.5
	z M207.4,165.5c-1.7,0-3,1.3-3,3s1.3,3,3,3s3-1.3,3-3c0-0.5-0.1-0.9-0.3-1.3l0,0C209.6,166.2,208.5,165.5,207.4,165.5L207.4,165.5z"
	/>
<circle class="st6" cx="433.4" cy="45.5" r="5"/>
<linearGradient id="SVGID_1_" gradientUnits="userSpaceOnUse" x1="674.8" y1="628.5788" x2="674.8" y2="628.5788" gradientTransform="matrix(1 0 0 1 0 -474)">
	<stop  offset="0" style="stop-color:#A61B29"/>
	<stop  offset="1" style="stop-color:#FFFFFF;stop-opacity:0.3"/>
</linearGradient>
<path class="st7" d="M674.8,154.6"/>
<linearGradient id="SVGID_2_" gradientUnits="userSpaceOnUse" x1="610.8" y1="692.5788" x2="610.8" y2="692.5788" gradientTransform="matrix(1 0 0 1 0 -474)">
	<stop  offset="0" style="stop-color:#A61B29"/>
	<stop  offset="1" style="stop-color:#FFFFFF;stop-opacity:0.3"/>
</linearGradient>
<path class="st8" d="M610.8,218.6"/>
<polygon class="st5" points="844.9,215.2 843.1,217 841.3,215.2 840.1,216.4 841.9,218.2 840.1,220 841.2,221.2 843.1,219.4 
	844.8,221.2 846,220 844.3,218.2 846.1,216.4 "/>
<polygon class="st9" points="742.3,100.5 740.8,100.6 740.5,102.1 739.9,100.7 738.3,100.8 739.5,99.8 738.9,98.4 740.2,99.2 
	741.4,98.2 741,99.7 "/>
<polygon class="st3" points="1009.4,161.7 1001.7,162.3 1000,169.8 997,162.7 989.4,163.4 995.2,158.4 992.2,151.3 998.7,155.3 
	1004.5,150.2 1002.8,157.7 "/>
<circle class="st6" cx="996.5" cy="201.9" r="2.5"/>
<circle class="st10" cx="569.8" cy="81.3" r="2"/>
<circle class="st10" cx="965.8" cy="66.3" r="2"/>
<circle class="st10" cx="712.8" cy="55.6" r="2"/>
<polygon class="st3" points="1277.8,131.1 1270.2,131.8 1268.4,139.2 1265.5,132.2 1257.8,132.8 1263.6,127.8 1260.6,120.7 
	1267.2,124.7 1273,119.7 1271.2,127.1 "/>
<polygon class="st11" points="1051.6,270.2 1049.7,270.3 1049.2,272.2 1048.5,270.4 1046.6,270.6 1048,269.3 1047.3,267.6 
	1048.9,268.6 1050.4,267.3 1049.9,269.2 "/>
<polygon class="st3" points="1101.1,48.6 1097.2,48.9 1096.4,52.6 1094.9,49.1 1091.1,49.4 1094,46.9 1092.5,43.4 1095.7,45.4 
	1098.6,42.9 1097.8,46.6 "/>
<g>
	<g id="log-in-girl-7-ellipse1_ts_5_" transform="translate(295.100006,872.539978) scale(0.733169,0.733169)">
		
			<linearGradient id="log-in-girl-7-ellipse1_1_" gradientUnits="userSpaceOnUse" x1="-112.0507" y1="591.0332" x2="-43.8537" y2="591.0332" gradientTransform="matrix(0.3942 0 0 -0.3942 1193.1864 -774.9723)">
			<stop  offset="0" style="stop-color:#696EFF"/>
			<stop  offset="1" style="stop-color:#F8ACFF"/>
		</linearGradient>
		<ellipse id="log-in-girl-7-ellipse1_5_" class="st12" cx="1183" cy="-1007.9" rx="34.1" ry="35.8"/>
	</g>
	<g id="log-in-girl-7-ellipse2_ts_5_" transform="translate(295.100006,872.539978) scale(0.733169,0.733169)">
		
			<radialGradient id="log-in-girl-7-ellipse2_2_" cx="-25.5295" cy="591.3375" r="16.7661" gradientTransform="matrix(0.3942 0 0 -0.3942 1193.1864 -774.9723)" gradientUnits="userSpaceOnUse">
			<stop  offset="0" style="stop-color:#919BFF"/>
			<stop  offset="1" style="stop-color:#133A94"/>
		</radialGradient>
		<ellipse id="log-in-girl-7-ellipse2_5_" class="st13" cx="1183" cy="-1007.9" rx="16.4" ry="17.2"/>
	</g>
</g>
<polygon class="st5" points="1396.5,64.2 1393.2,67.4 1390,64.2 1387.8,66.3 1391.1,69.6 1387.8,72.8 1390,75 1393.2,71.7 
	1396.5,75 1398.6,72.8 1395.4,69.6 1398.6,66.4 "/>
<polygon class="st5" points="1556,275.6 1554.2,277.4 1552.4,275.6 1551.2,276.8 1553,278.6 1551.2,280.4 1552.4,281.6 
	1554.2,279.8 1556,281.6 1557.2,280.4 1555.4,278.6 1557.2,276.8 "/>
<circle class="st14" cx="1241.2" cy="223.6" r="7.5"/>
<path class="st5" d="M1456.2,92.6c-2.8,0-5-2.2-5-5s2.2-5,5-5s5,2.2,5,5c0,1.9-1.1,3.7-2.8,4.5C1457.7,92.4,1457,92.6,1456.2,92.6z
	 M1456.2,84.6c-1.7,0-3,1.3-3,3s1.3,3,3,3s3-1.3,3-3c0-0.5-0.1-0.9-0.3-1.3l0,0C1458.4,85.2,1457.4,84.6,1456.2,84.6L1456.2,84.6z"
	/>
<polygon class="st5" points="1360,209.6 1358.2,211.4 1356.4,209.6 1355.2,210.8 1357,212.6 1355.2,214.4 1356.4,215.6 
	1358.2,213.8 1360,215.6 1361.2,214.4 1359.4,212.6 1361.2,210.8 "/>
<circle class="st6" cx="1524.5" cy="47.5" r="5"/>
<g>
	<g id="log-in-girl-7-ellipse1_ts_4_" transform="translate(295.100006,872.539978) scale(0.733169,0.733169)">
		
			<linearGradient id="log-in-girl-7-ellipse1_2_" gradientUnits="userSpaceOnUse" x1="1203.0535" y1="511.8758" x2="1230.3324" y2="511.8758" gradientTransform="matrix(0.3942 0 0 -0.3942 1193.1864 -774.9723)">
			<stop  offset="0" style="stop-color:#FF5053"/>
			<stop  offset="1" style="stop-color:#F0FFBB"/>
		</linearGradient>
		<ellipse id="log-in-girl-7-ellipse1_4_" class="st15" cx="1680.9" cy="-976.7" rx="13.6" ry="14.3"/>
	</g>
	<g id="log-in-girl-7-ellipse2_ts_4_" transform="translate(295.100006,872.539978) scale(0.733169,0.733169)">
		
			<linearGradient id="log-in-girl-7-ellipse2_3_" gradientUnits="userSpaceOnUse" x1="1221.0125" y1="511.8758" x2="1234.0941" y2="511.8758" gradientTransform="matrix(0.3942 0 0 -0.3942 1193.1864 -774.9723)">
			<stop  offset="0" style="stop-color:#FF5053"/>
			<stop  offset="1" style="stop-color:#F0FFBB"/>
		</linearGradient>
		<ellipse id="log-in-girl-7-ellipse2_4_" class="st16" cx="1680.9" cy="-976.7" rx="6.5" ry="6.9"/>
	</g>
</g>
<linearGradient id="SVGID_3_" gradientUnits="userSpaceOnUse" x1="1765.9" y1="630.5788" x2="1765.9" y2="630.5788" gradientTransform="matrix(1 0 0 1 0 -474)">
	<stop  offset="0" style="stop-color:#A61B29"/>
	<stop  offset="1" style="stop-color:#FFFFFF;stop-opacity:0.3"/>
</linearGradient>
<path class="st17" d="M1765.9,156.6"/>
<linearGradient id="SVGID_4_" gradientUnits="userSpaceOnUse" x1="1701.9" y1="694.5788" x2="1701.9" y2="694.5788" gradientTransform="matrix(1 0 0 1 0 -474)">
	<stop  offset="0" style="stop-color:#A61B29"/>
	<stop  offset="1" style="stop-color:#FFFFFF;stop-opacity:0.3"/>
</linearGradient>
<path class="st18" d="M1701.9,220.6"/>
<linearGradient id="SVGID_5_" gradientUnits="userSpaceOnUse" x1="1793.7006" y1="-74.259" x2="1863.1671" y2="-74.259" gradientTransform="matrix(1 0 0 -1 -173.3513 176.2309)">
	<stop  offset="0" style="stop-color:#F04A3A"/>
	<stop  offset="1" style="stop-color:#FFFFFF;stop-opacity:0.3"/>
</linearGradient>
<path class="st19" d="M1621.9,291.1l26.6-31.1l26.6-31.1c4.6-5.8,9.2-11.5,13.8-17.3c0.1-0.2,0.2-0.4,0.4-0.7
	c0.2-0.4,0.6-1.2,0.5-1.3s-0.8,0.8-1,1c-1.3,1.3-2.7,2.7-4,4c-7.5,8.8-15.1,17.6-22.6,26.3c-8.9,10.4-17.7,20.7-26.6,31.1l-15,17.6
	C1619.8,290.6,1621.1,292.1,1621.9,291.1z"/>
<linearGradient id="SVGID_6_" gradientUnits="userSpaceOnUse" x1="1815.9" y1="654.5788" x2="1815.9" y2="654.5788" gradientTransform="matrix(1 0 0 1 0 -474)">
	<stop  offset="0" style="stop-color:#F04A3A"/>
	<stop  offset="1" style="stop-color:#FFFFFF;stop-opacity:0.3"/>
</linearGradient>
<path class="st20" d="M1815.9,180.6"/>
<g id="log-in-girl-7-star2_2_" transform="matrix(1 0 0 1 -151.41200200000003 -11.64707700000002)">
	<g id="log-in-girl-7-ellipse9_ts_2_" transform="translate(527.990021,235.740005) scale(0.579296,0.579296)">
		
			<linearGradient id="log-in-girl-7-ellipse9_3_" gradientUnits="userSpaceOnUse" x1="5382.4619" y1="-577.2043" x2="5468.7734" y2="-577.2043" gradientTransform="matrix(0.1944 0 0 -0.1944 1620.5862 -453.7519)">
			<stop  offset="0" style="stop-color:#C88EDA"/>
			<stop  offset="1" style="stop-color:#EEEDED"/>
		</linearGradient>
		<ellipse id="log-in-girl-7-ellipse9_2_" class="st21" cx="2710.2" cy="-341.5" rx="43.2" ry="45.3"/>
	</g>
	<g id="log-in-girl-7-ellipse10_ts_2_" transform="translate(527.989990,235.740013) scale(0.733169,0.733169)">
		
			<linearGradient id="log-in-girl-7-ellipse10_3_" gradientUnits="userSpaceOnUse" x1="1893.406" y1="41.7793" x2="1927.5046" y2="41.7793" gradientTransform="matrix(0.3942 0 0 -0.3942 1378.2067 -253.3616)">
			<stop  offset="0" style="stop-color:#C88EDA"/>
			<stop  offset="1" style="stop-color:#EEEDED"/>
		</linearGradient>
		<ellipse id="log-in-girl-7-ellipse10_2_" class="st22" cx="2141.4" cy="-269.8" rx="17" ry="17.9"/>
	</g>
</g>
<polygon class="st5" points="1935.9,217.1 1934.1,218.9 1932.3,217.1 1931.1,218.3 1932.9,220.1 1931.1,221.9 1932.3,223.1 
	1934.1,221.3 1935.9,223.1 1937.1,221.9 1935.3,220.1 1937.1,218.4 "/>
<polygon class="st9" points="1833.4,102.4 1831.9,102.5 1831.5,104 1830.9,102.6 1829.4,102.8 1830.6,101.8 1830,100.3 
	1831.3,101.1 1832.4,100.1 1832.1,101.6 "/>
<path class="st5" d="M1850.9,207.3c-2.8,0-5-2.2-5-5s2.2-5,5-5s5,2.2,5,5c0,1.9-1.1,3.7-2.8,4.5
	C1852.4,207.1,1851.7,207.3,1850.9,207.3z M1850.9,199.3c-1.7,0-3,1.3-3,3s1.3,3,3,3s3-1.3,3-3c0-0.5-0.1-0.9-0.3-1.3l0,0
	C1853.1,199.9,1852.1,199.3,1850.9,199.3L1850.9,199.3z"/>
<polygon class="st3" points="2107.9,161 2100.3,161.7 2098.6,169.2 2095.6,162.1 2087.9,162.8 2093.7,157.7 2090.7,150.7 
	2097.3,154.6 2103.1,149.6 2101.4,157.1 "/>
<polygon class="st5" points="1986.9,90.4 1983.6,93.6 1980.4,90.4 1978.2,92.5 1981.4,95.8 1978.2,99 1980.3,101.2 1983.6,98 
	1986.8,101.2 1989,99.1 1985.8,95.8 1989,92.6 "/>
<polygon class="st5" points="2144.4,231.8 2142.6,233.6 2140.8,231.8 2139.6,233 2141.4,234.8 2139.6,236.6 2140.8,237.8 
	2142.6,236 2144.4,237.8 2145.6,236.6 2143.8,234.8 2145.6,233 "/>
<circle class="st6" cx="2150.6" cy="36.1" r="5"/>
<circle class="st10" cx="1660.9" cy="83.2" r="2"/>
</svg>
