<?xml version="1.0" standalone="no"?>
<!DOCTYPE svg PUBLIC "-//W3C//DTD SVG 20010904//EN"
 "http://www.w3.org/TR/2001/REC-SVG-20010904/DTD/svg10.dtd">
<svg version="1.0" xmlns="http://www.w3.org/2000/svg"
 width="1200.000000pt" height="1200.000000pt" viewBox="0 0 1200.000000 1200.000000"
 preserveAspectRatio="xMidYMid meet">

<g transform="translate(0.000000,1200.000000) scale(0.100000,-0.100000)"
fill="red" stroke="none">
<path d="M8110 9804 c-321 -21 -570 -59 -830 -125 -454 -116 -921 -357 -1335
-690 -139 -112 -393 -368 -448 -451 -41 -63 -92 -167 -102 -210 -12 -50 45
-44 161 15 27 14 139 101 249 192 393 327 535 428 851 606 67 37 166 88 220
112 137 61 558 201 679 226 211 43 364 70 455 81 52 6 113 15 135 20 22 6 69
12 105 15 36 3 83 8 105 11 101 12 223 15 279 5 113 -20 121 -22 130 -32 6 -5
18 -9 27 -9 25 0 56 -44 64 -88 11 -69 -47 -170 -175 -307 l-65 -69 52 43
c139 113 228 244 228 333 0 60 -25 95 -96 131 -85 43 -173 57 -397 64 -165 5
-200 8 -191 19 6 8 22 11 39 8 15 -4 31 -1 34 5 4 5 13 8 21 4 9 -3 22 0 30 7
8 7 15 8 15 3 0 -6 15 -8 38 -4 20 4 65 5 100 1 50 -5 62 -3 62 8 0 11 -9 13
-35 9 -19 -3 -37 -1 -40 4 -4 5 -16 7 -28 4 -12 -3 -60 -1 -107 3 l-85 8 60
14 c64 15 86 14 96 -2 4 -7 15 -8 25 -3 32 14 48 14 62 3 10 -9 16 -8 22 2 6
9 21 11 56 6 118 -15 253 -52 287 -77 16 -11 31 -18 34 -15 18 18 -139 79
-265 102 -75 14 -410 26 -522 18z m-100 -64 c0 -5 -2 -10 -4 -10 -3 0 -8 5
-11 10 -3 6 -1 10 4 10 6 0 11 -4 11 -10z m-93 -6 c-3 -3 -12 -4 -19 -1 -8 3
-5 6 6 6 11 1 17 -2 13 -5z m-242 -34 c-27 -12 -43 -12 -25 0 8 5 22 9 30 9
10 0 8 -3 -5 -9z m493 -17 c-16 -2 -40 -2 -55 0 -16 2 -3 4 27 4 30 0 43 -2
28 -4z"/>
<path d="M8031 9089 c-362 -26 -778 -132 -1100 -280 -141 -66 -327 -162 -390
-203 -92 -60 -190 -139 -191 -153 0 -7 -20 -26 -44 -42 -76 -53 -206 -195
-380 -416 l-60 -75 -25 24 c-62 57 -231 169 -341 226 -158 80 -269 122 -415
156 -110 26 -136 28 -320 28 -238 0 -363 -19 -574 -90 -242 -80 -414 -187
-580 -360 -152 -157 -237 -297 -395 -644 -108 -237 -130 -278 -219 -403 -135
-190 -217 -368 -202 -438 5 -22 4 -29 -4 -25 -7 5 -11 -8 -11 -41 0 -36 3 -44
11 -33 8 11 9 7 4 -17 -7 -36 11 -113 26 -113 6 0 7 -4 4 -10 -8 -14 24 -72
36 -64 6 3 9 -2 7 -12 -2 -12 2 -18 11 -16 8 2 11 -3 7 -13 -8 -22 138 -167
161 -158 10 4 14 2 10 -4 -4 -5 5 -21 20 -34 14 -13 23 -18 18 -10 -5 9 -3 12
6 9 8 -3 13 -10 12 -16 -3 -14 36 -47 55 -47 10 0 16 -5 15 -11 -1 -6 10 -22
25 -35 14 -13 21 -17 14 -8 -6 9 -9 18 -6 22 3 3 -45 48 -108 100 -147 122
-219 201 -259 283 -29 59 -34 79 -37 165 -4 103 15 194 59 282 11 21 17 43 13
49 -4 7 -3 8 4 4 14 -8 36 30 26 46 -4 7 -3 8 4 4 6 -4 16 4 23 16 7 13 44 68
83 123 39 54 90 135 112 178 24 45 44 75 48 68 4 -6 2 -11 -5 -11 -7 0 -9 -3
-6 -7 9 -8 -73 -162 -112 -211 -54 -69 -142 -212 -176 -285 -44 -97 -59 -168
-53 -265 9 -160 75 -248 364 -483 221 -181 379 -293 488 -349 46 -24 82 -48
80 -52 -3 -4 3 -5 12 -1 12 4 15 3 10 -5 -5 -8 -1 -10 10 -5 13 5 15 3 9 -7
-5 -9 -4 -11 3 -6 7 4 12 3 12 -2 0 -5 12 -15 27 -23 40 -19 50 -22 33 -9 -12
9 -9 10 15 5 17 -3 -22 23 -85 58 -125 69 -265 162 -400 265 -176 135 -415
339 -453 387 -41 52 -87 139 -87 165 0 8 11 -11 24 -43 13 -32 43 -82 66 -112
65 -84 422 -370 651 -521 229 -151 593 -297 709 -284 8 0 -19 10 -60 21 -147
39 -287 92 -397 149 -112 59 -343 204 -343 216 0 4 8 0 18 -7 15 -13 16 -12 3
4 -8 10 -20 16 -27 13 -7 -3 -16 0 -20 6 -5 7 -2 8 7 3 8 -5 5 1 -5 13 -23 26
-45 30 -25 5 13 -16 12 -17 -4 -4 -9 8 -15 16 -12 19 6 7 -15 32 -27 32 -5 0
-6 -6 -2 -12 4 -8 3 -10 -2 -5 -5 5 -9 12 -9 15 0 13 -16 32 -26 32 -6 0 -7
-6 -3 -12 5 -9 2 -8 -9 1 -10 8 -15 16 -12 19 6 7 -25 42 -37 42 -5 0 -6 -5
-2 -12 4 -7 3 -8 -5 -4 -6 4 -9 11 -6 15 7 12 -30 42 -46 39 -8 -2 -13 2 -12
9 1 6 -45 51 -104 99 -156 130 -214 211 -229 322 -6 44 12 170 22 159 3 -2 0
-26 -6 -52 -16 -73 -5 -64 13 11 21 84 61 164 145 287 122 178 149 226 242
430 144 314 210 428 330 572 144 173 372 321 600 389 188 56 282 70 480 70
198 1 276 -10 430 -61 80 -27 262 -111 295 -137 11 -9 -29 9 -89 39 -114 58
-274 113 -391 136 -116 23 -386 18 -525 -10 -311 -62 -532 -171 -715 -355
-149 -150 -222 -271 -392 -643 -99 -219 -139 -290 -255 -453 -96 -135 -156
-292 -144 -377 6 -46 42 -123 77 -163 l21 -25 -22 35 c-47 76 -55 103 -55 185
0 73 4 88 40 165 22 46 78 139 124 205 97 138 147 229 259 475 181 396 300
558 523 713 183 128 466 219 749 242 303 25 647 -87 938 -304 107 -80 325
-292 424 -414 46 -55 94 -112 107 -126 34 -38 -65 105 -117 169 -70 85 -79
100 -28 47 25 -27 46 -44 46 -39 0 6 -4 13 -10 17 -5 3 -19 20 -31 38 -18 28
-16 27 16 -8 140 -151 204 -213 181 -177 -4 7 -5 12 -2 12 3 0 24 -27 46 -60
22 -33 43 -60 46 -60 8 0 -22 51 -89 153 -70 106 -63 113 10 10 45 -63 64 -82
42 -42 -22 42 -141 214 -166 241 -14 14 -22 31 -19 36 4 6 1 14 -5 18 -8 5 -9
3 -4 -6 5 -9 4 -11 -4 -6 -6 4 -9 12 -5 17 3 5 -31 48 -77 94 -45 47 -80 87
-77 90 7 7 146 -139 241 -253 42 -51 77 -90 77 -86 0 15 -116 161 -208 261
l-93 103 37 32 c183 162 482 372 708 498 785 437 1632 551 2396 324 436 -130
759 -280 908 -423 132 -127 123 -196 -40 -304 -153 -101 -286 -157 -585 -248
-172 -52 -432 -116 -560 -139 -40 -7 -70 -17 -67 -21 2 -4 -4 -10 -13 -13 -31
-10 -323 -55 -458 -71 -71 -9 -137 -18 -146 -20 -8 -3 -44 -8 -80 -11 -35 -3
-104 -10 -154 -14 -66 -6 -44 -7 85 -3 194 5 353 21 599 59 90 14 165 23 167
21 12 -11 -445 -81 -640 -98 -72 -6 -149 -15 -171 -20 -28 -6 -16 -7 40 -2 44
3 145 7 225 8 238 4 801 101 1143 195 39 11 72 18 75 16 9 -9 -297 -85 -523
-130 -399 -79 -751 -124 -1135 -146 -484 -28 -488 -29 -165 -25 289 4 542 19
749 45 48 6 91 8 96 5 13 -8 311 39 545 87 234 47 263 52 220 38 -65 -22 -531
-111 -730 -139 -249 -36 -463 -56 -750 -71 -115 -6 -212 -14 -215 -17 -15 -16
624 29 878 62 825 108 1455 288 1756 502 101 72 195 246 181 335 -10 64 -27
118 -37 118 -5 0 -6 5 -3 10 3 6 1 10 -6 10 -7 0 -9 3 -6 7 4 3 -1 12 -11 20
-10 9 -11 11 -2 7 8 -5 -24 30 -72 76 -48 47 -89 86 -92 88 -3 1 -16 13 -29
26 -12 12 -62 46 -111 75 -349 206 -838 378 -1226 431 -275 37 -448 45 -669
29z m-2296 -1089 c10 -11 16 -20 13 -20 -3 0 -13 9 -23 20 -10 11 -16 20 -13
20 3 0 13 -9 23 -20z m115 -97 c0 -7 -78 56 -87 70 -4 6 14 -6 40 -27 26 -21
47 -40 47 -43z m3467 -349 c-3 -3 -12 -4 -19 -1 -8 3 -5 6 6 6 11 1 17 -2 13
-5z m-40 -10 c-3 -3 -12 -4 -19 -1 -8 3 -5 6 6 6 11 1 17 -2 13 -5z m-40 -10
c-3 -3 -12 -4 -19 -1 -8 3 -5 6 6 6 11 1 17 -2 13 -5z m-480 -10 c-3 -3 -12
-4 -19 -1 -8 3 -5 6 6 6 11 1 17 -2 13 -5z m-60 -10 c-3 -3 -12 -4 -19 -1 -8
3 -5 6 6 6 11 1 17 -2 13 -5z m-2547 -60 c18 -26 29 -45 24 -42 -5 4 -25 28
-44 54 -18 26 -29 45 -24 42 5 -4 25 -28 44 -54z m2493 49 c-7 -2 -19 -2 -25
0 -7 3 -2 5 12 5 14 0 19 -2 13 -5z m-66 -9 c-3 -3 -12 -4 -19 -1 -8 3 -5 6 6
6 11 1 17 -2 13 -5z m-64 -11 c-7 -2 -19 -2 -25 0 -7 3 -2 5 12 5 14 0 19 -2
13 -5z m-60 -10 c-7 -2 -21 -2 -30 0 -10 3 -4 5 12 5 17 0 24 -2 18 -5z m-70
-10 c-7 -2 -21 -2 -30 0 -10 3 -4 5 12 5 17 0 24 -2 18 -5z m-80 -10 c-7 -2
-21 -2 -30 0 -10 3 -4 5 12 5 17 0 24 -2 18 -5z m-75 -10 c-10 -2 -28 -2 -40
0 -13 2 -5 4 17 4 22 1 32 -1 23 -4z m-5068 -493 c-6 -11 -13 -20 -16 -20 -2
0 0 9 6 20 6 11 13 20 16 20 2 0 0 -9 -6 -20z m-37 -61 c-10 -17 -24 -36 -32
-42 -8 -7 -2 7 14 31 32 49 45 57 18 11z m-43 -63 c0 -2 -8 -10 -17 -17 -16
-13 -17 -12 -4 4 13 16 21 21 21 13z m-133 -205 c-23 -44 -43 -78 -45 -76 -4
3 43 99 66 133 28 43 20 21 -21 -57z m-70 -173 c-3 -8 -6 -5 -6 6 -1 11 2 17
5 13 3 -3 4 -12 1 -19z m-10 -130 c-2 -24 -4 -7 -4 37 0 44 2 63 4 43 2 -21 2
-57 0 -80z m48 -268 c10 -11 16 -20 13 -20 -3 0 -13 9 -23 20 -10 11 -16 20
-13 20 3 0 13 -9 23 -20z m45 -55 c13 -14 21 -25 18 -25 -2 0 -15 11 -28 25
-13 14 -21 25 -18 25 2 0 15 -11 28 -25z m60 -50 c13 -14 21 -25 18 -25 -2 0
-15 11 -28 25 -13 14 -21 25 -18 25 2 0 15 -11 28 -25z m61 -52 c13 -16 12
-17 -3 -4 -10 7 -18 15 -18 17 0 8 8 3 21 -13z m64 -53 c10 -11 16 -20 13 -20
-3 0 -13 9 -23 20 -10 11 -16 20 -13 20 3 0 13 -9 23 -20z"/>
<path d="M10185 8420 c10 -11 20 -20 23 -20 3 0 -3 9 -13 20 -10 11 -20 20
-23 20 -3 0 3 -9 13 -20z"/>
<path d="M8663 7593 c9 -2 23 -2 30 0 6 3 -1 5 -18 5 -16 0 -22 -2 -12 -5z"/>
<path d="M8608 7583 c6 -2 18 -2 25 0 6 3 1 5 -13 5 -14 0 -19 -2 -12 -5z"/>
<path d="M8548 7573 c7 -3 16 -2 19 1 4 3 -2 6 -13 5 -11 0 -14 -3 -6 -6z"/>
<path d="M6068 7452 c13 -17 28 -35 34 -39 7 -3 2 8 -10 25 -13 17 -28 35 -34
39 -7 3 -2 -8 10 -25z"/>
<path d="M7638 7453 c17 -2 47 -2 65 0 17 2 3 4 -33 4 -36 0 -50 -2 -32 -4z"/>
<path d="M7433 7443 c9 -2 25 -2 35 0 9 3 1 5 -18 5 -19 0 -27 -2 -17 -5z"/>
<path d="M4483 7240 c-85 -51 -85 -178 0 -231 77 -49 192 6 204 98 15 112
-108 192 -204 133z"/>
<path d="M8018 7083 c28 -2 76 -2 105 0 28 2 5 3 -53 3 -58 0 -81 -1 -52 -3z"/>
<path d="M8475 7084 c221 -12 474 -55 694 -119 141 -40 382 -132 378 -144 -1
-5 50 -35 113 -68 367 -189 697 -457 892 -723 18 -24 27 -41 20 -36 -14 9 -16
-5 -2 -22 6 -7 5 -7 -3 0 -8 7 -43 49 -79 93 -147 179 -365 368 -589 510 -204
129 -514 270 -662 301 -80 17 -100 13 -30 -6 77 -21 320 -118 423 -170 416
-210 748 -502 990 -870 58 -88 200 -361 200 -384 0 -5 -33 55 -73 135 -241
482 -624 857 -1129 1106 -131 66 -374 163 -401 163 -7 -1 46 -23 117 -50 136
-53 349 -150 342 -157 -2 -3 -27 7 -55 21 -28 14 -54 26 -58 26 -4 -1 27 -19
70 -41 43 -22 83 -37 89 -33 6 4 8 3 5 -4 -4 -6 18 -24 50 -42 221 -124 499
-361 659 -560 218 -270 364 -562 448 -895 14 -55 26 -118 25 -140 0 -30 -6
-15 -24 63 -126 545 -416 992 -865 1331 -184 139 -465 302 -492 285 -6 -4 -8
-3 -5 3 8 12 -20 26 -34 17 -5 -3 -9 -1 -9 5 0 6 -7 7 -17 4 -12 -5 -14 -3 -8
7 5 8 4 11 -2 7 -5 -4 -50 10 -99 29 -192 76 -454 141 -680 169 -118 15 -169
15 -480 5 -192 -7 -383 -16 -424 -20 l-75 -8 90 4 c455 20 805 14 940 -16 38
-9 38 -9 -10 -4 -27 2 -97 6 -155 9 l-105 4 100 -9 c330 -30 665 -120 952
-255 123 -58 294 -156 323 -185 10 -10 52 -44 94 -75 42 -32 76 -60 76 -62 0
-3 -7 0 -15 7 -9 7 -18 11 -20 8 -3 -2 25 -29 62 -59 274 -222 506 -539 637
-869 76 -192 159 -537 143 -597 -3 -11 -5 -6 -6 12 -3 67 -62 322 -105 450
-210 629 -701 1121 -1385 1390 -206 80 -543 161 -636 151 -33 -4 -42 -3 -25 3
15 5 -19 6 -80 3 -115 -5 -147 -12 -57 -12 75 0 269 -26 381 -51 218 -48 441
-127 629 -221 54 -27 103 -46 109 -42 7 4 8 3 4 -4 -3 -6 2 -16 13 -21 26 -14
34 -14 25 1 -4 7 -3 8 5 4 6 -4 9 -11 6 -16 -3 -5 3 -14 14 -19 26 -14 34 -14
25 1 -4 7 -3 8 5 4 6 -4 9 -11 6 -15 -4 -8 96 -81 111 -81 4 0 0 8 -7 18 -11
15 -11 15 1 4 8 -7 15 -18 15 -24 0 -6 6 -13 14 -16 9 -3 11 0 6 9 -5 8 -4 11
1 6 5 -5 9 -12 9 -15 0 -13 16 -32 27 -32 6 0 5 7 -3 18 -13 15 -12 16 4 3 9
-8 15 -16 12 -19 -7 -7 25 -42 38 -42 6 0 2 10 -9 23 l-19 22 22 -19 c13 -10
21 -22 18 -26 -2 -3 36 -42 86 -86 49 -43 115 -107 145 -142 31 -34 59 -60 63
-57 5 2 17 -5 27 -18 l19 -22 -22 19 c-36 30 -27 10 24 -52 110 -135 238 -360
309 -543 44 -115 97 -319 120 -469 15 -89 19 -172 19 -370 -1 -320 -19 -458
-92 -685 -14 -44 -32 -102 -41 -130 -18 -60 -77 -181 -93 -190 -8 -6 -8 -2 0
14 7 11 9 21 7 21 -10 0 -37 -61 -31 -70 3 -5 0 -12 -6 -16 -8 -4 -9 -3 -5 4
4 7 5 12 3 12 -8 0 -60 -84 -60 -97 0 -7 -3 -10 -7 -8 -4 3 -37 -30 -73 -73
-36 -42 -83 -95 -106 -116 -22 -22 -38 -43 -35 -47 12 -20 -166 -139 -321
-214 -102 -49 -309 -126 -338 -124 -6 0 40 18 103 39 63 22 165 64 227 94 112
55 270 153 295 184 16 19 17 20 -112 -66 -233 -156 -527 -257 -890 -307 -171
-23 -487 -30 -835 -16 -886 34 -908 35 -1089 68 -61 11 -84 18 -75 25 9 6 2 7
-21 3 -22 -4 -30 -3 -22 3 16 11 -63 37 -80 26 -6 -4 -8 -3 -5 3 4 6 0 14 -9
17 -24 9 -31 7 -14 -5 12 -8 12 -10 1 -7 -13 4 -27 48 -15 48 3 0 19 -7 37
-16 l32 -15 -24 19 c-30 24 -23 36 34 58 25 9 45 20 45 24 0 4 6 8 13 7 34 -1
58 4 53 12 -3 4 6 6 21 3 18 -3 24 -1 19 6 -5 8 3 10 26 6 25 -4 29 -3 18 5
-11 8 -2 10 35 6 36 -4 44 -3 30 4 -14 7 1 8 50 5 50 -3 63 -1 45 5 -18 7 -4
8 45 5 52 -3 65 -2 50 6 -16 8 -13 9 16 5 96 -14 242 110 280 237 22 76 5 239
-24 221 -6 -4 -7 -1 -3 6 10 15 -13 73 -25 65 -5 -3 -6 3 -2 12 4 11 2 15 -4
11 -6 -4 -10 1 -9 11 0 9 -4 16 -11 15 -8 -2 -10 4 -6 14 4 10 2 14 -4 10 -6
-4 -10 1 -9 11 0 9 -4 16 -11 15 -8 -2 -10 4 -6 14 5 12 3 14 -7 8 -8 -5 -11
-4 -7 2 9 14 -47 115 -58 106 -4 -5 -5 -3 -2 3 8 13 -26 97 -35 88 -8 -8 -63
136 -88 231 -52 200 -49 405 9 585 19 60 27 97 20 101 -12 7 51 89 112 144 24
22 44 43 44 48 0 5 8 14 18 21 9 7 17 17 17 22 0 5 28 30 63 57 34 26 88 69
119 95 32 27 98 72 148 101 49 29 90 56 90 60 0 16 291 138 427 179 71 22 113
55 113 90 0 31 -326 -9 -551 -67 -359 -93 -633 -234 -825 -426 -273 -271 -367
-628 -279 -1061 23 -115 96 -325 154 -449 28 -59 51 -111 51 -115 0 -4 -19
-10 -42 -14 -162 -25 -352 -94 -453 -163 -74 -50 -165 -145 -194 -202 -17 -33
-26 -41 -39 -35 -45 19 -249 77 -366 105 -72 17 -136 32 -142 34 -7 2 -22 34
-34 72 -40 121 -130 273 -201 339 -58 53 -162 128 -235 169 -38 21 -80 47 -94
57 -35 25 -176 67 -203 60 -21 -5 -21 -5 -5 19 118 165 165 268 188 412 18
112 9 179 -36 272 -54 111 -121 175 -213 205 -74 24 -130 54 -81 44 20 -4 22
-3 9 5 -25 16 -104 27 -95 13 5 -9 -13 -12 -66 -13 -96 -1 -117 -4 -130 -17
-8 -8 0 -10 32 -7 40 4 42 3 37 -21 -3 -17 0 -24 12 -24 13 0 16 -12 16 -63 0
-34 -4 -68 -9 -76 -6 -9 -5 -12 1 -8 6 4 16 0 22 -7 10 -11 8 -16 -8 -21 -12
-3 -21 -11 -21 -17 0 -7 5 -6 14 1 12 10 17 8 26 -9 6 -11 8 -25 5 -30 -13
-21 37 -256 68 -319 10 -21 13 -14 24 60 16 101 31 118 77 91 17 -10 35 -28
41 -40 5 -12 13 -22 18 -22 4 0 5 6 1 13 -4 6 -3 9 1 4 5 -4 10 -15 11 -25 1
-9 7 -47 13 -84 14 -81 3 -134 -41 -220 -45 -84 -53 -89 -124 -78 -32 6 -102
9 -154 8 -80 -1 -86 -2 -40 -7 49 -5 53 -7 35 -18 -18 -11 -16 -12 20 -13 35
-1 37 -2 16 -11 -15 -6 -21 -15 -17 -24 4 -11 -2 -15 -20 -15 -14 0 -22 -4
-19 -10 3 -5 -2 -10 -11 -10 -17 0 -17 -1 0 -13 15 -11 16 -15 3 -25 -19 -16
-104 -31 -142 -26 -25 4 -26 3 -10 -5 11 -5 36 -10 55 -10 47 -2 71 -16 42
-26 -12 -3 -21 -11 -19 -18 1 -6 -16 -14 -40 -17 -40 -6 -71 -20 -45 -20 22 0
12 -20 -13 -26 -14 -3 -25 -10 -25 -15 0 -5 -10 -14 -22 -19 -23 -9 -23 -9 2
-10 20 0 22 -2 10 -10 -11 -7 -6 -10 19 -10 33 0 34 -1 15 -16 -19 -15 -19
-15 1 -10 81 20 207 30 365 30 168 0 194 -2 281 -26 124 -34 229 -87 296 -151
57 -54 129 -145 121 -153 -3 -2 -63 3 -134 13 -285 38 -859 16 -949 -37 -16
-9 -59 -25 -95 -35 -169 -45 -351 -184 -380 -290 -41 -144 19 -285 164 -386
38 -27 65 -49 60 -49 -22 1 -124 82 -171 138 -118 138 -110 289 20 430 49 52
54 60 25 38 -21 -16 -51 -45 -67 -65 l-29 -36 -29 26 c-48 43 -72 49 -175 38
-51 -5 -111 -13 -133 -19 -68 -16 -75 -14 -69 23 3 17 11 45 17 61 9 26 8 31
-17 52 -33 29 -60 30 -79 4 -12 -18 -12 -27 -1 -59 7 -22 11 -55 7 -75 -6 -40
13 -32 -203 -86 -126 -32 -215 -59 -237 -73 -24 -15 11 -68 61 -94 27 -14 30
-14 53 11 28 30 84 56 122 56 14 0 60 9 101 20 97 25 99 25 67 -8 -35 -37 -36
-79 -2 -92 29 -11 30 -17 11 -39 -39 -45 -136 -194 -136 -210 0 -24 33 -53 53
-45 21 8 47 59 47 93 0 42 155 180 177 157 3 -3 -3 -16 -14 -29 -10 -14 -25
-44 -33 -67 -18 -55 1 -91 49 -95 42 -4 48 -11 26 -35 -22 -24 -16 -25 32 -5
19 8 51 15 70 15 39 0 51 19 35 56 -10 20 -19 24 -57 24 -55 0 -59 17 -15 67
36 41 38 62 7 91 -38 36 -81 29 -164 -27 -55 -37 -68 -43 -56 -25 8 13 19 24
25 24 5 0 40 22 79 49 l70 49 -21 20 c-12 11 -37 23 -56 27 -24 4 -34 11 -34
24 0 15 14 22 68 35 117 28 184 35 232 24 25 -5 57 -12 72 -15 24 -4 26 -8 17
-30 -5 -13 -9 -55 -9 -92 0 -56 5 -79 32 -131 46 -92 129 -170 241 -225 156
-77 219 -89 457 -89 189 0 214 2 324 28 138 32 294 85 380 128 167 84 315 219
377 346 l34 69 120 -59 c193 -97 471 -268 447 -276 -12 -4 74 -93 138 -144 89
-71 234 -131 403 -167 192 -41 377 -58 787 -71 173 -5 444 -15 602 -21 221 -9
327 -9 455 0 206 14 334 29 348 41 5 4 60 18 120 29 429 84 746 220 1066 458
288 215 505 548 623 960 74 257 105 591 86 923 -13 219 -48 457 -71 486 -6 7
-9 16 -8 20 2 11 7 -5 -56 181 -29 89 -80 220 -112 290 -74 161 -170 326 -185
317 -7 -4 -8 -3 -4 4 7 12 -27 68 -87 145 -20 26 -33 35 -40 28 -7 -7 -6 -15
3 -26 9 -11 15 -13 20 -5 5 8 9 7 13 -3 14 -36 -27 -3 -134 107 -210 219 -320
318 -493 440 -94 68 -310 192 -373 216 -29 11 -83 35 -120 53 -73 37 -171 72
-179 64 -2 -2 24 -14 58 -26 205 -73 570 -284 763 -441 90 -73 269 -249 334
-327 70 -86 40 -60 -49 42 -89 102 -244 244 -368 338 -182 137 -453 288 -659
368 -74 28 -109 46 -100 51 7 5 0 6 -17 2 -19 -5 -27 -3 -22 4 4 6 -2 8 -16 5
-19 -4 -20 -3 -8 6 12 9 9 10 -14 5 -22 -5 -27 -4 -21 6 5 9 2 10 -15 5 -16
-5 -20 -4 -15 4 5 8 -2 10 -22 6 -22 -5 -25 -4 -13 4 12 9 9 10 -14 5 -21 -5
-27 -4 -22 5 6 9 0 10 -21 6 -22 -5 -25 -4 -13 4 12 9 9 10 -14 5 -21 -5 -27
-4 -22 5 6 9 0 10 -20 5 -19 -5 -25 -4 -20 5 6 8 0 10 -18 5 -16 -4 -26 -2
-26 5 0 6 -6 8 -12 6 -16 -5 -221 29 -214 36 3 2 -14 3 -36 1 -22 -3 -38 0
-35 4 3 5 -61 9 -142 10 -80 1 -119 -1 -86 -2z m338 -241 c-7 -2 -21 -2 -30 0
-10 3 -4 5 12 5 17 0 24 -2 18 -5z m50 -10 c-7 -2 -19 -2 -25 0 -7 3 -2 5 12
5 14 0 19 -2 13 -5z m54 -9 c-3 -3 -12 -4 -19 -1 -8 3 -5 6 6 6 11 1 17 -2 13
-5z m788 -194 c3 -6 -1 -7 -9 -4 -18 7 -21 14 -7 14 6 0 13 -4 16 -10z m330
-370 c10 -11 16 -20 13 -20 -3 0 -13 9 -23 20 -10 11 -16 20 -13 20 3 0 13 -9
23 -20z m-15 -65 c13 -14 21 -25 18 -25 -2 0 -15 11 -28 25 -13 14 -21 25 -18
25 2 0 15 -11 28 -25z m145 -135 c55 -55 97 -100 95 -100 -3 0 -50 45 -105
100 -55 55 -97 100 -95 100 3 0 50 -45 105 -100z m426 -7 c13 -16 12 -17 -3
-4 -17 13 -22 21 -14 21 2 0 10 -8 17 -17z m115 -50 c13 -20 13 -25 2 -16 -8
7 -17 11 -20 8 -3 -3 -11 3 -19 12 -13 17 -13 17 5 3 18 -14 19 -13 13 3 -9
25 -2 21 19 -10z m-105 -70 c13 -16 12 -17 -3 -4 -10 7 -18 15 -18 17 0 8 8 3
21 -13z m239 -538 c0 -5 -5 -3 -10 5 -5 8 -10 20 -10 25 0 6 5 3 10 -5 5 -8
10 -19 10 -25z m77 -502 c-3 -10 -5 -4 -5 12 0 17 2 24 5 18 2 -7 2 -21 0 -30z
m10 -55 c-3 -8 -6 -5 -6 6 -1 11 2 17 5 13 3 -3 4 -12 1 -19z m-110 -150 c-2
-13 -4 -3 -4 22 0 25 2 35 4 23 2 -13 2 -33 0 -45z m-5440 -514 c-6 -20 -13
-32 -14 -27 -4 11 14 63 21 63 2 0 -1 -16 -7 -36z m5800 -86 c-3 -7 -5 -2 -5
12 0 14 2 19 5 13 2 -7 2 -19 0 -25z m-5862 -60 c-14 -30 -40 -70 -56 -89
l-31 -34 21 35 c12 19 36 61 54 92 17 31 33 55 35 53 2 -1 -9 -27 -23 -57z
m5842 -80 c-3 -8 -6 -5 -6 6 -1 11 2 17 5 13 3 -3 4 -12 1 -19z m-10 -60 c-3
-8 -6 -5 -6 6 -1 11 2 17 5 13 3 -3 4 -12 1 -19z m-10 -50 c-3 -8 -6 -5 -6 6
-1 11 2 17 5 13 3 -3 4 -12 1 -19z m-6370 -154 c-3 -3 -12 -4 -19 -1 -8 3 -5
6 6 6 11 1 17 -2 13 -5z m3080 -276 c-3 -7 -5 -2 -5 12 0 14 2 19 5 13 2 -7 2
-19 0 -25z m3144 -15 c-12 -20 -14 -14 -5 12 4 9 9 14 11 11 3 -2 0 -13 -6
-23z m-501 -2 c-5 -11 -15 -23 -21 -27 -6 -3 -3 5 6 20 20 30 30 35 15 7z
m-60 -91 c-15 -28 -180 -200 -192 -200 -8 0 190 217 200 219 1 1 -2 -8 -8 -19z
m-4810 -34 c156 -23 159 -24 176 -58 l16 -31 -28 6 c-140 31 -223 49 -244 53
-29 6 -79 11 -215 18 -80 5 -279 16 -293 16 -2 0 0 5 4 11 10 16 450 5 584
-15z m-467 -43 c-7 -2 -21 -2 -30 0 -10 3 -4 5 12 5 17 0 24 -2 18 -5z m152
-8 c85 -8 288 -43 363 -61 35 -9 65 -14 68 -11 3 2 -12 8 -33 12 -36 8 -37 8
-13 15 36 11 59 11 35 -1 -15 -7 -10 -8 20 -4 31 3 36 2 20 -5 -16 -8 -14 -9
13 -5 20 3 31 1 27 -5 -3 -6 -2 -10 3 -10 10 0 26 -49 19 -57 -2 -2 -68 14
-145 36 -139 39 -410 91 -480 91 -28 0 -33 3 -22 10 8 6 26 8 40 5 14 -3 52
-7 85 -10z m370 -35 c-11 -5 -27 -9 -35 -9 -9 0 -8 4 5 9 11 5 27 9 35 9 9 0
8 -4 -5 -9z m486 -19 c129 -34 380 -108 386 -115 3 -3 1 -11 -3 -18 -5 -7 -10
-22 -11 -33 -7 -44 -10 -44 -115 -3 -57 22 -165 60 -242 84 -76 24 -140 45
-141 46 -1 2 -5 18 -8 36 -8 40 -10 40 134 3z m-902 3 c199 -29 561 -132 561
-160 0 -29 -38 -113 -78 -171 -53 -78 -145 -151 -268 -212 -206 -101 -343
-132 -579 -130 -182 1 -262 17 -383 74 -84 40 -176 122 -203 180 -22 48 -24
113 -4 161 21 50 102 125 181 166 79 42 212 85 299 97 103 15 359 12 474 -5z
m2500 -50 c-18 -20 -43 -40 -54 -46 -11 -6 3 10 30 35 60 55 72 61 24 11z
m-1459 -102 c118 -42 217 -77 219 -79 2 -1 0 -11 -5 -21 -9 -19 -10 -19 -49
-1 -22 10 -33 19 -25 19 12 0 11 3 -2 11 -11 6 -24 6 -34 1 -12 -7 -2 -15 45
-35 34 -15 61 -31 61 -36 0 -6 -35 6 -77 25 -108 50 -369 154 -385 154 -7 -1
43 -22 112 -49 69 -26 174 -71 235 -99 102 -46 110 -52 117 -83 3 -19 5 -36 2
-38 -2 -2 -59 25 -126 59 -68 35 -177 87 -243 116 -76 34 -119 57 -117 66 2 7
4 21 5 30 1 10 2 18 4 18 1 0 51 -18 110 -40 76 -29 110 -37 117 -30 8 8 6 9
-8 4 -14 -5 -17 -4 -11 5 6 10 2 11 -15 6 -17 -5 -21 -4 -15 6 6 9 3 11 -8 6
-10 -4 -17 -2 -17 4 0 6 -7 9 -15 5 -8 -3 -15 -2 -15 3 0 4 -27 16 -60 26 -62
19 -95 41 -43 29 15 -4 125 -41 243 -82z m1375 38 c-3 -5 -12 -10 -18 -10 -7
0 -6 4 3 10 19 12 23 12 15 0z m-3645 -20 c-14 -4 -43 -8 -65 -8 -38 0 -39 1
-10 8 17 4 46 8 65 8 32 0 33 -1 10 -8z m3600 0 c-8 -5 -22 -9 -30 -9 -10 0
-8 3 5 9 27 12 43 12 25 0z m-3725 -15 c-38 -14 -125 -32 -125 -25 0 4 21 12
48 18 46 9 97 14 77 7z m-195 -44 c-8 -5 -40 -14 -70 -20 -30 -7 -64 -16 -75
-21 -11 -5 -38 -11 -60 -14 -22 -3 -51 -9 -65 -12 -14 -4 -22 -4 -18 0 6 8
263 74 288 75 13 0 13 -1 0 -8z m2416 -20 c193 -81 394 -188 394 -209 0 -14
-1 -14 -65 27 -22 14 -123 67 -225 118 -102 51 -182 93 -179 93 3 0 37 -13 75
-29z m78 -81 c88 -43 164 -76 169 -73 6 3 7 1 4 -4 -4 -6 23 -29 62 -52 73
-43 87 -49 75 -29 -4 7 -3 8 5 4 6 -4 9 -11 6 -16 -3 -5 -1 -11 5 -15 5 -3 15
-15 21 -27 13 -25 20 -28 -131 71 -63 42 -178 108 -255 148 -77 40 -135 72
-130 73 6 0 82 -36 169 -80z m3331 -120 c-11 -5 -29 -8 -40 -8 -16 0 -15 2 5
8 34 11 60 11 35 0z m-68 -16 c-3 -3 -12 -4 -19 -1 -8 3 -5 6 6 6 11 1 17 -2
13 -5z m-40 -10 c-3 -3 -12 -4 -19 -1 -8 3 -5 6 6 6 11 1 17 -2 13 -5z m-4609
-341 c-10 -2 -28 -2 -40 0 -13 2 -5 4 17 4 22 1 32 -1 23 -4z"/>
<path d="M5183 3273 c9 -2 25 -2 35 0 9 3 1 5 -18 5 -19 0 -27 -2 -17 -5z"/>
<path d="M5518 3253 c6 -2 18 -2 25 0 6 3 1 5 -13 5 -14 0 -19 -2 -12 -5z"/>
<path d="M5788 3123 c7 -3 16 -2 19 1 4 3 -2 6 -13 5 -11 0 -14 -3 -6 -6z"/>
<path d="M6276 2991 c-6 -9 94 -54 102 -46 3 3 -1 5 -9 5 -12 0 -11 2 1 11 12
8 10 9 -9 4 -15 -5 -21 -3 -17 3 8 13 -19 23 -41 15 -11 -4 -14 -3 -9 5 4 7 3
12 -3 12 -5 0 -12 -4 -15 -9z"/>
<path d="M8998 7073 c7 -3 16 -2 19 1 4 3 -2 6 -13 5 -11 0 -14 -3 -6 -6z"/>
<path d="M9078 7053 c7 -3 16 -2 19 1 4 3 -2 6 -13 5 -11 0 -14 -3 -6 -6z"/>
<path d="M9118 7043 c7 -3 16 -2 19 1 4 3 -2 6 -13 5 -11 0 -14 -3 -6 -6z"/>
<path d="M9165 7030 c11 -5 27 -9 35 -9 9 0 8 4 -5 9 -11 5 -27 9 -35 9 -9 0
-8 -4 5 -9z"/>
<path d="M8323 7003 c9 -2 25 -2 35 0 9 3 1 5 -18 5 -19 0 -27 -2 -17 -5z"/>
<path d="M8428 7003 c17 -2 47 -2 65 0 17 2 3 4 -33 4 -36 0 -50 -2 -32 -4z"/>
<path d="M9314 6984 c38 -13 71 -22 73 -20 5 5 -116 46 -131 45 -6 0 20 -11
58 -25z"/>
<path d="M8603 6993 c9 -2 25 -2 35 0 9 3 1 5 -18 5 -19 0 -27 -2 -17 -5z"/>
<path d="M8693 6983 c9 -2 25 -2 35 0 9 3 1 5 -18 5 -19 0 -27 -2 -17 -5z"/>
<path d="M8763 6973 c9 -2 23 -2 30 0 6 3 -1 5 -18 5 -16 0 -22 -2 -12 -5z"/>
<path d="M8658 6963 c6 -2 18 -2 25 0 6 3 1 5 -13 5 -14 0 -19 -2 -12 -5z"/>
<path d="M8828 6963 c6 -2 18 -2 25 0 6 3 1 5 -13 5 -14 0 -19 -2 -12 -5z"/>
<path d="M8733 6953 c9 -2 23 -2 30 0 6 3 -1 5 -18 5 -16 0 -22 -2 -12 -5z"/>
<path d="M8878 6953 c6 -2 18 -2 25 0 6 3 1 5 -13 5 -14 0 -19 -2 -12 -5z"/>
<path d="M9401 6956 c8 -8 133 -56 136 -52 2 2 -26 15 -62 30 -62 25 -84 31
-74 22z"/>
<path d="M8798 6943 c6 -2 18 -2 25 0 6 3 1 5 -13 5 -14 0 -19 -2 -12 -5z"/>
<path d="M8928 6943 c6 -2 18 -2 25 0 6 3 1 5 -13 5 -14 0 -19 -2 -12 -5z"/>
<path d="M8853 6933 c9 -2 23 -2 30 0 6 3 -1 5 -18 5 -16 0 -22 -2 -12 -5z"/>
<path d="M8978 6933 c7 -3 16 -2 19 1 4 3 -2 6 -13 5 -11 0 -14 -3 -6 -6z"/>
<path d="M8920 6920 c14 -4 34 -8 45 -8 16 0 15 2 -5 8 -14 4 -34 8 -45 8 -16
0 -15 -2 5 -8z"/>
<path d="M9050 6916 c25 -7 59 -16 75 -19 l30 -7 -25 14 c-14 7 -47 16 -75 19
l-50 6 45 -13z"/>
<path d="M8998 6903 c7 -3 16 -2 19 1 4 3 -2 6 -13 5 -11 0 -14 -3 -6 -6z"/>
<path d="M9038 6893 c7 -3 16 -2 19 1 4 3 -2 6 -13 5 -11 0 -14 -3 -6 -6z"/>
<path d="M9690 6827 c220 -111 365 -204 545 -352 100 -82 290 -271 355 -353
23 -29 36 -38 41 -30 9 14 -8 38 -24 35 -7 -1 -12 5 -12 15 0 20 -35 59 -46
52 -4 -2 -13 5 -19 16 -6 11 -7 20 -3 20 4 0 -13 20 -37 45 -24 24 -46 43 -48
40 -2 -2 -48 36 -103 85 -120 107 -255 210 -386 293 -96 60 -378 207 -398 207
-5 0 55 -33 135 -73z m795 -557 c21 -22 37 -40 34 -40 -3 0 -23 18 -44 40 -21
22 -37 40 -34 40 3 0 23 -18 44 -40z m90 -100 c10 -11 16 -20 13 -20 -3 0 -13
9 -23 20 -10 11 -16 20 -13 20 3 0 13 -9 23 -20z"/>
<path d="M9078 6883 c7 -3 16 -2 19 1 4 3 -2 6 -13 5 -11 0 -14 -3 -6 -6z"/>
<path d="M8263 6873 c31 -2 83 -2 115 0 31 2 5 3 -58 3 -63 0 -89 -1 -57 -3z"/>
<path d="M9140 6865 c19 -7 42 -13 50 -13 8 0 -1 6 -20 13 -19 7 -42 13 -50
13 -8 0 1 -6 20 -13z"/>
<path d="M7613 6863 c15 -2 37 -2 50 0 12 2 0 4 -28 4 -27 0 -38 -2 -22 -4z"/>
<path d="M7928 6863 c23 -2 59 -2 80 0 20 2 1 4 -43 4 -44 0 -61 -2 -37 -4z"/>
<path d="M7518 6853 c12 -2 32 -2 45 0 12 2 2 4 -23 4 -25 0 -35 -2 -22 -4z"/>
<path d="M7763 6853 c15 -2 37 -2 50 0 12 2 0 4 -28 4 -27 0 -38 -2 -22 -4z"/>
<path d="M7443 6843 c9 -2 23 -2 30 0 6 3 -1 5 -18 5 -16 0 -22 -2 -12 -5z"/>
<path d="M7638 6843 c12 -2 30 -2 40 0 9 3 -1 5 -23 4 -22 0 -30 -2 -17 -4z"/>
<path d="M7368 6833 c6 -2 18 -2 25 0 6 3 1 5 -13 5 -14 0 -19 -2 -12 -5z"/>
<path d="M7533 6833 c9 -2 25 -2 35 0 9 3 1 5 -18 5 -19 0 -27 -2 -17 -5z"/>
<path d="M7453 6823 c9 -2 23 -2 30 0 6 3 -1 5 -18 5 -16 0 -22 -2 -12 -5z"/>
<path d="M7378 6813 c7 -3 16 -2 19 1 4 3 -2 6 -13 5 -11 0 -14 -3 -6 -6z"/>
<path d="M8533 6793 c9 -2 25 -2 35 0 9 3 1 5 -18 5 -19 0 -27 -2 -17 -5z"/>
<path d="M8218 6783 c39 -2 105 -2 145 0 39 1 7 3 -73 3 -80 0 -112 -2 -72 -3z"/>
<path d="M7888 6773 c28 -2 76 -2 105 0 28 2 5 3 -53 3 -58 0 -81 -1 -52 -3z"/>
<path d="M7727 6763 c18 -2 50 -2 70 0 21 2 7 4 -32 4 -38 0 -55 -2 -38 -4z"/>
<path d="M7550 6749 c-28 -4 -11 -5 45 -2 50 3 92 7 94 9 7 6 -90 2 -139 -7z"/>
<path d="M7453 6733 c9 -2 23 -2 30 0 6 3 -1 5 -18 5 -16 0 -22 -2 -12 -5z"/>
<path d="M7383 6723 c9 -2 23 -2 30 0 6 3 -1 5 -18 5 -16 0 -22 -2 -12 -5z"/>
<path d="M7323 6713 c9 -2 23 -2 30 0 6 3 -1 5 -18 5 -16 0 -22 -2 -12 -5z"/>
<path d="M7268 6703 c7 -3 16 -2 19 1 4 3 -2 6 -13 5 -11 0 -14 -3 -6 -6z"/>
<path d="M7138 6683 c6 -2 18 -2 25 0 6 3 1 5 -13 5 -14 0 -19 -2 -12 -5z"/>
<path d="M7088 6673 c6 -2 18 -2 25 0 6 3 1 5 -13 5 -14 0 -19 -2 -12 -5z"/>
<path d="M9275 6670 c11 -5 70 -30 130 -56 166 -69 360 -178 493 -276 30 -22
56 -37 59 -34 8 8 -224 158 -340 220 -101 54 -289 137 -337 150 -21 5 -22 5
-5 -4z"/>
<path d="M7038 6663 c7 -3 16 -2 19 1 4 3 -2 6 -13 5 -11 0 -14 -3 -6 -6z"/>
<path d="M10190 6387 c0 -2 15 -16 33 -33 l32 -29 -29 33 c-28 30 -36 37 -36
29z"/>
<path d="M10347 6238 c50 -53 117 -129 148 -168 54 -66 76 -87 58 -56 -16 29
-154 183 -224 251 -64 61 -62 58 18 -27z"/>
<path d="M2950 6265 c0 -5 5 -17 10 -25 5 -8 10 -10 10 -5 0 6 -5 17 -10 25
-5 8 -10 11 -10 5z"/>
<path d="M3270 5740 c67 -60 364 -274 325 -233 -5 5 -48 36 -95 69 -47 32
-128 92 -180 132 -52 40 -75 55 -50 32z"/>
<path d="M2233 5547 c-58 -20 -98 -40 -108 -54 -8 -11 -37 -35 -64 -51 -69
-43 -167 -169 -202 -262 -23 -59 -26 -77 -16 -86 20 -20 38 -20 119 1 78 19
78 19 105 -1 16 -11 36 -37 46 -57 25 -49 40 -158 32 -224 -6 -46 -10 -56 -33
-65 -298 -120 -632 -375 -920 -702 -107 -121 -167 -196 -158 -196 3 0 39 27
79 61 266 225 580 416 830 507 42 16 75 31 71 34 -3 4 4 4 17 1 17 -5 20 -3
14 8 -6 11 -5 11 4 3 26 -24 -102 -313 -254 -574 -98 -169 -171 -273 -303
-433 -279 -339 -525 -488 -689 -417 -84 36 -111 102 -88 214 7 33 11 63 10 65
-4 4 -32 -90 -38 -129 -3 -14 -3 0 0 29 5 71 -7 59 -17 -16 -6 -50 -8 -53 -9
-18 -3 87 58 244 148 383 22 34 38 62 36 62 -11 0 -117 -172 -146 -235 -38
-85 -60 -181 -53 -236 4 -34 3 -41 -6 -29 -9 12 -10 10 -4 -10 14 -52 87 -131
143 -157 49 -23 64 -25 145 -21 79 4 102 9 169 41 43 20 77 33 75 29 -42 -81
-43 -83 -46 -290 -4 -247 4 -279 82 -358 65 -65 131 -89 221 -82 105 9 185 63
238 162 20 37 22 59 25 217 l4 177 23 -24 c54 -54 135 -20 180 74 9 18 34 50
56 70 21 20 39 42 39 49 0 7 6 16 13 20 15 10 61 72 69 93 10 28 83 70 122 72
29 1 40 7 48 24 8 17 8 27 0 37 -9 11 -6 17 13 27 14 7 25 19 25 27 0 7 4 13
10 13 5 0 6 -8 3 -17 -12 -31 35 24 57 66 28 56 25 76 -13 105 -43 33 -104 34
-164 5 -24 -11 -49 -22 -55 -23 -35 -7 -143 -68 -178 -100 -23 -20 -44 -34
-49 -32 -4 3 -16 23 -25 44 -15 33 -49 62 -73 62 -8 0 5 -77 24 -138 15 -48
73 -122 94 -122 19 0 30 42 20 72 -10 27 -8 35 15 65 33 44 68 61 89 43 8 -7
15 -20 15 -30 0 -25 -38 -70 -60 -70 -10 0 -20 -8 -22 -17 -6 -24 12 -63 29
-63 40 0 -14 -112 -99 -201 -60 -64 -121 -99 -171 -99 -32 0 -35 3 -45 43 -25
97 -109 182 -207 208 -22 6 -67 9 -99 6 -68 -6 -75 -19 63 104 154 136 383
409 631 754 95 132 227 311 294 397 118 153 122 157 161 159 38 2 38 2 8 6
-36 5 -41 14 -19 33 14 11 127 3 216 -15 22 -5 23 -4 5 5 -11 6 -63 16 -115
24 -85 12 -90 14 -45 16 l50 3 -45 7 c-41 6 -38 7 35 10 61 3 68 4 30 7 -27 2
-60 5 -72 8 -22 5 -22 6 -4 24 10 10 31 22 47 26 l29 8 -25 7 c-23 7 -22 8 10
10 32 1 33 2 13 12 -12 6 -24 17 -27 25 -4 9 -2 11 6 7 8 -5 9 -2 5 10 -4 9
-3 15 1 12 12 -7 44 63 36 76 -4 6 -2 8 3 5 12 -7 36 50 28 64 -3 4 4 41 15
81 11 40 23 116 26 168 5 83 3 102 -15 149 -44 109 -111 180 -145 152 -11 -10
-19 -4 -43 28 -15 22 -32 41 -37 41 -5 0 -15 8 -22 18 -9 11 -16 13 -21 7 -8
-11 -32 -11 -93 -1 -25 4 -62 -4 -127 -27z m-105 -829 c-2 -6 -67 -43 -144
-83 -186 -95 -331 -187 -464 -293 -45 -37 -48 -38 -15 -7 114 106 348 266 500
341 114 56 129 62 123 42z m-10 -39 c-2 -7 -26 -20 -53 -31 -55 -22 -54 -16 3
18 43 25 55 29 50 13z m-19 -103 c-8 -8 -133 -56 -136 -52 -2 2 24 15 59 29
58 24 87 33 77 23z m-169 -71 c-14 -8 -29 -14 -35 -14 -5 0 1 6 15 14 14 8 30
14 35 14 6 0 -1 -6 -15 -14z m140 -5 c-10 -19 -32 -25 -73 -22 -11 1 -15 -2
-11 -9 4 -8 -1 -9 -16 -4 -14 4 -20 3 -16 -3 8 -13 -17 -22 -33 -12 -9 5 15
19 65 38 95 37 98 37 84 12z m-620 -213 c0 -2 -15 -16 -32 -33 l-33 -29 29 33
c28 30 36 37 36 29z m800 -862 c0 -3 -14 -36 -31 -75 l-32 -70 -14 27 c-8 16
-25 39 -39 54 -32 34 -30 47 9 58 34 10 107 14 107 6z m-1541 -325 c11 -24 11
-24 -3 -6 -9 11 -16 24 -16 30 0 12 5 7 19 -24z m782 -5 c59 -20 112 -65 147
-123 l27 -47 0 -220 c0 -227 0 -230 -43 -293 -23 -34 -110 50 -128 122 -6 25
-5 28 11 22 10 -4 28 0 42 9 20 13 24 23 21 53 -3 36 -4 37 -48 40 -47 4 -60
14 -60 48 0 17 8 22 40 27 54 7 90 31 90 62 0 42 -24 55 -104 55 -77 0 -88 4
-79 26 4 10 23 14 63 14 63 0 84 14 78 52 -3 22 -8 23 -94 28 -94 5 -110 12
-151 59 -13 14 -23 20 -23 13 0 -14 36 -53 63 -68 44 -25 -14 -64 -93 -64 -31
0 -50 -4 -50 -11 0 -8 17 -10 55 -5 67 8 103 23 110 48 6 15 17 18 86 18 65 0
81 -3 86 -16 14 -37 -61 -56 -135 -35 -20 6 -32 6 -32 0 0 -5 5 -9 10 -9 6 0
10 -11 10 -25 0 -24 -3 -25 -55 -25 -68 0 -100 -14 -116 -53 -11 -27 -10 -32
10 -48 15 -13 31 -16 51 -12 16 3 36 3 45 0 20 -8 6 -45 -36 -99 -31 -38 -31
-41 -31 -154 -1 -63 2 -118 6 -121 3 -3 6 45 6 108 l0 114 40 59 c37 54 40 64
40 128 l0 69 48 -3 47 -3 5 -87 c3 -47 8 -89 11 -92 3 -4 26 -10 50 -14 30 -5
45 -13 47 -25 7 -34 -17 -47 -84 -47 -54 0 -65 -3 -75 -21 -6 -12 -8 -35 -5
-52 7 -34 63 -127 77 -127 5 0 -7 25 -27 55 -27 43 -34 64 -32 93 3 31 7 37
28 40 22 2 29 -5 55 -60 21 -44 41 -70 67 -87 44 -28 41 -37 -31 -79 -40 -23
-57 -27 -126 -27 -90 0 -137 19 -192 77 -65 68 -73 100 -73 323 0 180 3 205
21 245 58 129 197 190 330 145z m-151 -300 l0 -45 -55 0 c-50 0 -55 2 -55 23
0 32 12 47 46 57 58 17 64 14 64 -35z m224 29 c21 -20 20 -30 -4 -54 -13 -13
-33 -20 -60 -20 l-40 0 0 45 0 45 44 0 c27 0 51 -6 60 -16z"/>
<path d="M3625 5485 c11 -9 29 -21 40 -26 l20 -10 -20 16 c-11 9 -29 21 -40
26 l-20 10 20 -16z"/>
<path d="M3690 5446 c0 -3 14 -12 30 -21 17 -9 30 -13 30 -11 0 3 -13 12 -30
21 -16 9 -30 13 -30 11z"/>
<path d="M3945 5346 c28 -14 54 -25 60 -25 14 -1 -27 25 -50 31 -11 3 -29 9
-40 12 -11 3 3 -5 30 -18z"/>
<path d="M3320 5334 c-105 -21 -183 -59 -262 -130 -78 -69 -108 -115 -160
-241 -38 -91 -41 -107 -48 -233 -5 -74 -5 -139 0 -145 4 -5 10 -26 13 -45 7
-48 47 -151 56 -146 4 3 8 -4 9 -15 4 -43 6 -48 21 -54 9 -4 17 -5 18 -3 1 2
24 -18 50 -44 27 -26 78 -64 113 -84 36 -19 57 -33 48 -30 -48 16 -51 16 -25
1 15 -9 32 -13 37 -10 5 3 47 -2 92 -11 200 -41 439 44 608 216 93 95 148 196
175 323 5 25 9 27 54 27 44 0 52 -4 84 -39 36 -40 73 -124 79 -180 3 -33 3
-33 -72 -60 -117 -41 -248 -126 -372 -240 -81 -75 -248 -281 -248 -306 0 -3
35 23 78 58 171 142 396 257 586 301 l29 7 -7 -60 c-9 -79 -39 -184 -87 -308
-133 -339 -355 -578 -539 -578 -74 0 -147 37 -176 88 -11 21 -22 35 -25 33 -2
-2 -3 17 -2 42 1 45 1 45 -6 12 -5 -20 -9 -26 -10 -15 -1 17 -3 18 -12 5 -18
-25 -2 102 21 161 26 69 19 74 -10 7 -28 -66 -36 -151 -20 -217 24 -100 146
-176 278 -174 217 3 429 210 697 683 83 147 183 312 227 373 17 25 24 42 27
68 1 4 11 9 24 13 17 5 19 8 8 15 -12 7 -12 17 -1 57 24 94 9 259 -31 341 -29
60 -113 147 -134 139 -11 -4 -32 7 -61 32 -28 26 -54 39 -73 40 -16 0 -39 5
-50 11 -28 15 -159 -13 -183 -39 -10 -11 -32 -27 -48 -35 -16 -8 -36 -25 -44
-37 l-15 -21 -11 29 c-6 16 -13 35 -16 43 -2 8 -7 11 -10 8 -3 -3 1 -27 9 -55
9 -28 11 -54 7 -58 -15 -15 -27 -119 -16 -137 15 -23 -25 -140 -72 -213 -42
-64 -148 -168 -203 -198 l-34 -18 30 26 c17 14 33 25 36 26 3 0 16 15 29 33
l24 32 -44 -38 c-68 -57 -233 -129 -294 -126 -12 0 6 7 39 15 109 26 216 87
297 166 65 65 149 190 136 204 -3 2 -15 -19 -28 -46 -13 -28 -30 -56 -37 -62
-18 -14 -16 -2 3 28 9 13 14 27 11 30 -2 3 -14 -10 -25 -28 -12 -18 -33 -45
-49 -58 -22 -20 -21 -18 6 15 71 82 109 216 89 311 -6 27 -14 53 -19 58 -4 5
-3 -8 3 -30 6 -22 8 -67 4 -103 -6 -64 -43 -164 -57 -155 -4 2 -11 -1 -15 -7
-4 -8 -3 -9 4 -5 24 15 11 -13 -28 -60 -38 -47 -92 -93 -135 -116 -18 -10 -19
-10 -6 5 14 17 3 23 -15 10 -5 -5 0 2 12 13 13 12 29 24 36 27 7 2 10 8 6 12
-4 4 -20 -2 -37 -14 -16 -12 -49 -30 -73 -41 -24 -10 -43 -25 -43 -32 0 -7 -9
-14 -20 -16 -11 -2 -31 -8 -44 -15 -13 -7 -60 -12 -105 -12 -64 0 -90 5 -126
23 -35 17 -38 20 -15 15 17 -4 45 -7 63 -7 21 0 28 -2 20 -8 -21 -13 69 2 158
27 115 32 159 58 240 139 55 55 76 85 93 131 31 82 30 158 -2 229 -14 31 -28
56 -32 56 -3 0 4 -19 16 -42 13 -26 24 -69 26 -108 7 -100 -22 -167 -111 -256
-177 -176 -421 -202 -533 -55 -18 23 -37 58 -43 79 -24 86 -4 265 39 349 33
65 105 148 120 139 5 -4 25 3 43 14 21 12 52 20 83 21 28 0 44 3 38 6 -15 6
-17 50 -3 55 5 2 11 15 12 31 1 16 8 27 17 27 8 0 12 3 8 6 -12 12 21 33 61
40 37 6 69 34 39 34 -8 0 -8 3 2 9 35 23 -189 60 -269 45z m-453 -576 c-3 -8
-6 -5 -6 6 -1 11 2 17 5 13 3 -3 4 -12 1 -19z m1180 -80 c-3 -8 -6 -5 -6 6 -1
11 2 17 5 13 3 -3 4 -12 1 -19z m-1179 -74 c-3 -14 -5 -12 -10 9 -3 19 -2 25
4 19 6 -6 8 -18 6 -28z m1113 -31 c-12 -20 -14 -14 -5 12 4 9 9 14 11 11 3 -2
0 -13 -6 -23z m-26 -53 c-9 -16 -18 -30 -21 -30 -2 0 2 14 11 30 9 17 18 30
21 30 2 0 -2 -13 -11 -30z m-124 -53 l-34 -32 28 38 c15 21 30 35 33 32 3 -3
-9 -20 -27 -38z m-666 -45 c34 -38 36 -43 12 -27 -28 18 -75 76 -60 74 4 0 26
-21 48 -47z m1125 10 c0 -5 -19 -17 -42 -27 -111 -47 -177 -79 -247 -121 -46
-27 -64 -34 -46 -19 49 42 189 123 257 150 71 27 78 29 78 17z m0 -32 c0 -5
-3 -10 -7 -10 -5 0 -19 -3 -33 -6 l-25 -5 25 15 c30 18 40 20 40 6z m-488 -62
c-11 -13 -36 -31 -54 -41 -32 -17 -32 -17 -8 0 13 10 36 28 50 40 33 29 39 29
12 1z m485 -14 c-3 -3 -12 -4 -19 -1 -8 3 -5 6 6 6 11 1 17 -2 13 -5z m-621
-49 c-11 -8 -25 -15 -30 -15 -6 1 0 7 14 15 32 19 40 18 16 0z m624 10 c0 -7
-37 -21 -80 -30 -45 -9 -29 9 20 23 41 12 60 14 60 7z m-580 -10 c0 -6 -56
-35 -67 -35 -4 1 8 9 27 20 39 22 40 22 40 15z m-292 -42 c-15 -2 -42 -2 -60
0 -18 2 -6 4 27 4 33 0 48 -2 33 -4z m137 -3 c-11 -5 -27 -9 -35 -9 -9 0 -8 4
5 9 11 5 27 9 35 9 9 0 8 -4 -5 -9z m365 6 c0 -2 -8 -10 -17 -17 -16 -13 -17
-12 -4 4 13 16 21 21 21 13z m-437 -23 c-7 -2 -19 -2 -25 0 -7 3 -2 5 12 5 14
0 19 -2 13 -5z m387 -16 c0 -2 -12 -14 -27 -28 l-28 -24 24 28 c23 25 31 32
31 24z"/>
<path d="M4130 5276 c20 -8 51 -16 70 -19 19 -4 8 2 -25 13 -67 22 -100 26
-45 6z"/>
<path d="M4288 5233 c6 -2 18 -2 25 0 6 3 1 5 -13 5 -14 0 -19 -2 -12 -5z"/>
<path d="M4343 5223 c9 -2 23 -2 30 0 6 3 -1 5 -18 5 -16 0 -22 -2 -12 -5z"/>
<path d="M4403 5213 c9 -2 23 -2 30 0 6 3 -1 5 -18 5 -16 0 -22 -2 -12 -5z"/>
<path d="M3967 4940 c9 -22 18 -38 20 -36 5 5 -24 76 -31 76 -2 0 3 -18 11
-40z"/>
<path d="M3825 4898 c4 -13 11 -27 16 -33 5 -5 4 5 -2 23 -12 36 -24 44 -14
10z"/>
<path d="M3991 4874 c0 -11 3 -14 6 -6 3 7 2 16 -1 19 -3 4 -6 -2 -5 -13z"/>
<path d="M3932 4765 c-1 -33 -6 -75 -11 -93 -6 -18 -6 -30 -1 -27 14 9 22 64
17 125 l-3 55 -2 -60z"/>
<path d="M3951 4694 c0 -11 3 -14 6 -6 3 7 2 16 -1 19 -3 4 -6 -2 -5 -13z"/>
<path d="M3941 4654 c0 -11 3 -14 6 -6 3 7 2 16 -1 19 -3 4 -6 -2 -5 -13z"/>
<path d="M3900 4619 c0 -5 5 -7 10 -4 6 3 10 8 10 11 0 2 -4 4 -10 4 -5 0 -10
-5 -10 -11z"/>
<path d="M2648 4603 c12 -2 30 -2 40 0 9 3 -1 5 -23 4 -22 0 -30 -2 -17 -4z"/>
<path d="M2728 4593 c7 -3 16 -2 19 1 4 3 -2 6 -13 5 -11 0 -14 -3 -6 -6z"/>
<path d="M3780 4522 c-19 -21 -53 -52 -75 -70 -22 -18 -35 -32 -29 -32 15 0
99 75 124 111 29 40 21 36 -20 -9z"/>
<path d="M4673 4333 c9 -2 23 -2 30 0 6 3 -1 5 -18 5 -16 0 -22 -2 -12 -5z"/>
<path d="M2966 4302 c-4 -7 101 -93 142 -116 28 -16 9 3 -25 26 -21 14 -55 42
-75 62 -20 20 -39 32 -42 28z"/>
<path d="M4665 4300 c17 -4 39 -8 50 -8 16 0 15 2 -5 8 -14 4 -36 8 -50 8 -22
0 -22 -1 5 -8z"/>
<path d="M4748 4283 c7 -3 16 -2 19 1 4 3 -2 6 -13 5 -11 0 -14 -3 -6 -6z"/>
<path d="M4733 3943 c9 -2 25 -2 35 0 9 3 1 5 -18 5 -19 0 -27 -2 -17 -5z"/>
<path d="M2098 3759 l-77 -70 -20 43 c-14 30 -18 35 -14 15 11 -55 -6 -115
-43 -151 -40 -38 -41 -47 -14 -64 12 -7 18 -17 15 -22 -3 -5 1 -25 9 -45 27
-63 75 -40 121 58 28 59 57 110 74 131 7 8 8 17 3 20 -6 3 -15 -1 -22 -9 -7
-8 -18 -15 -24 -15 -6 0 -1 8 11 18 16 12 20 21 13 31 -6 10 -2 23 11 39 30
39 12 40 -22 1 -24 -27 -23 -24 6 16 24 32 44 50 57 50 12 0 23 7 25 15 4 13
3 13 -6 0 -8 -11 -13 -12 -19 -3 -5 8 -32 -11 -84 -58z"/>
<path d="M2699 3743 c-30 -31 -98 -102 -152 -157 -54 -56 -100 -112 -103 -126
-3 -14 -10 -33 -15 -43 -9 -16 -7 -17 24 -4 18 8 73 41 121 73 113 76 130 86
134 74 2 -6 8 -8 13 -4 5 3 9 -4 9 -15 0 -20 -115 -138 -151 -155 -28 -13 -20
-48 14 -60 20 -8 34 -7 49 3 18 11 20 11 14 -4 -3 -9 -6 -23 -6 -30 0 -7 -29
-24 -65 -37 -44 -15 -65 -28 -63 -38 7 -36 135 -25 163 13 7 10 19 15 29 11
23 -9 21 -107 -4 -159 l-19 -40 31 -55 c39 -70 53 -84 73 -77 13 6 16 23 14
115 -1 60 1 114 5 121 4 6 3 11 -3 11 -5 0 -12 -8 -14 -17 -3 -11 -5 -7 -6 10
0 15 -5 27 -11 27 -5 0 -10 15 -10 33 0 30 5 36 38 51 48 22 120 23 160 2 62
-32 96 -11 50 31 -45 41 -90 49 -173 31 -81 -16 -80 -17 -69 40 5 26 12 31 38
34 42 4 46 31 6 48 -27 11 -30 17 -30 56 0 24 4 44 9 44 5 0 11 6 13 13 2 11
31 5 123 -25 l120 -39 18 22 c9 12 17 30 17 40 0 37 -43 45 -263 48 -37 1 -38
1 -23 23 33 47 9 168 -32 168 -10 0 -43 -26 -73 -57z m31 -271 c0 -23 -8 -32
-46 -50 -26 -13 -48 -21 -50 -20 -5 6 77 98 87 98 5 0 9 -13 9 -28z m0 -157
c-5 -14 -14 -23 -20 -20 -14 8 -13 31 2 55 18 28 32 1 18 -35z"/>
<path d="M2152 3737 c-11 -13 -11 -41 0 -52 3 -3 13 7 23 22 18 27 18 28 0 13
-17 -14 -18 -13 -13 8 7 25 5 27 -10 9z"/>
<path d="M2215 3660 c-3 -5 -15 -10 -26 -10 -10 0 -19 -7 -19 -15 0 -8 5 -15
10 -15 6 0 4 -13 -5 -30 -18 -34 -19 -44 -4 -34 16 10 -6 -29 -26 -46 -9 -7
-21 -22 -27 -33 -10 -20 -10 -20 23 1 19 11 53 25 77 31 23 7 42 16 42 21 0 6
18 17 40 26 22 9 40 22 40 28 0 7 -15 29 -34 49 -33 37 -77 49 -91 27z"/>
<path d="M2130 3525 c-11 -13 -10 -14 4 -9 9 3 16 10 16 15 0 13 -6 11 -20 -6z"/>
<path d="M3096 3402 c-3 -5 -5 -49 -5 -98 0 -49 -5 -112 -11 -140 -11 -51 -13
-52 -72 -79 -50 -22 -64 -25 -85 -16 -36 17 -43 14 -43 -19 0 -64 67 -160 111
-160 14 0 12 -14 -16 -108 -17 -60 -41 -122 -53 -139 -42 -59 -148 -122 -204
-123 -34 0 -38 -26 -10 -60 15 -18 31 -23 88 -27 45 -3 77 0 94 9 25 14 96
128 79 128 -16 0 -10 37 16 82 14 25 30 73 35 109 24 140 16 127 74 139 70 14
146 51 193 93 37 34 39 39 37 88 -1 48 -5 56 -42 91 -42 39 -78 49 -88 24 -3
-8 -11 -17 -18 -19 -9 -4 -11 11 -8 57 3 33 8 63 13 64 17 7 9 59 -12 86 -20
25 -62 35 -73 18z"/>
<path d="M716 3365 c-9 -26 -7 -32 5 -12 6 10 9 21 6 23 -2 3 -7 -2 -11 -11z"/>
<path d="M2163 3144 c-18 -9 -33 -21 -33 -26 0 -5 5 -6 10 -3 20 13 9 -9 -25
-46 -67 -75 -118 -208 -97 -254 6 -13 30 -34 54 -46 37 -19 53 -21 123 -16 44
3 118 18 165 32 47 14 116 32 154 40 87 18 166 68 166 105 -1 19 -24 50 -39
50 -6 0 -11 5 -11 10 0 6 -5 10 -10 10 -6 0 -23 12 -37 28 -24 26 -25 26 -18
4 7 -23 6 -23 -14 -6 -11 10 -18 21 -15 25 2 4 -4 6 -13 5 -12 -2 -29 14 -50
48 -39 59 -41 46 -12 -65 11 -44 18 -83 16 -86 -12 -11 -189 -65 -265 -80 -76
-15 -84 -15 -99 0 -15 14 -14 20 10 69 14 29 50 79 80 111 47 51 55 56 67 43
12 -16 8 -111 -7 -154 -5 -14 -4 -15 8 -4 14 13 15 16 17 64 l2 27 25 -24 c28
-29 34 -30 59 -12 13 9 16 20 11 40 -9 33 -87 100 -112 95 -10 -1 -29 5 -43
15 -29 20 -27 20 -67 1z"/>
<path d="M3116 2784 c-11 -29 -6 -50 22 -86 24 -33 124 -118 137 -118 3 0 5
-3 6 -7 0 -5 8 -17 18 -28 24 -27 43 -97 31 -109 -12 -12 -13 -46 -2 -46 4 0
35 -4 69 -9 34 -5 79 -7 101 -4 37 5 40 8 50 51 8 36 7 52 -3 72 -21 41 -235
225 -235 203 0 -6 9 -18 20 -28 11 -10 18 -20 16 -22 -8 -8 -86 38 -83 49 1 7
-4 12 -11 13 -8 0 -19 7 -25 16 -7 8 -20 18 -29 22 -10 3 -18 11 -18 17 0 6
-4 9 -10 5 -5 -3 -7 -12 -3 -20 3 -8 1 -15 -5 -15 -12 0 -26 29 -23 48 3 18
-16 15 -23 -4z m81 -100 c-8 -8 -38 27 -31 38 3 5 13 0 21 -12 8 -12 13 -23
10 -26z m73 -61 c30 -32 43 -48 29 -35 -28 24 -44 29 -33 10 5 -9 3 -9 -9 1
-9 7 -14 17 -11 22 3 5 -2 9 -10 9 -9 0 -16 4 -16 9 0 5 -3 16 -6 25 -10 25
-2 19 56 -41z"/>
<path d="M7228 2773 c7 -3 16 -2 19 1 4 3 -2 6 -13 5 -11 0 -14 -3 -6 -6z"/>
<path d="M7278 2763 c7 -3 16 -2 19 1 4 3 -2 6 -13 5 -11 0 -14 -3 -6 -6z"/>
</g>
</svg>
