<?xml version="1.0" encoding="utf-8"?>
<!-- Generator: Adobe Illustrator 23.1.0, SVG Export Plug-In . SVG Version: 6.00 Build 0)  -->
<svg version="1.1" id="f6dc6f51-58d1-4328-a543-5a2c5176acea"
	 xmlns="http://www.w3.org/2000/svg" xmlns:xlink="http://www.w3.org/1999/xlink" x="0px" y="0px" viewBox="0 0 672.2 1040.7"
	 style="enable-background:new 0 0 672.2 1040.7;" xml:space="preserve">
<style type="text/css">
	.st0{fill:#9F616A;}
	.st1{fill:#01A6C7;}
	.st2{opacity:0.1;enable-background:new    ;}
	.st3{fill:#2F2E41;}
	.st4{fill:#3F3D56;}
	.st5{fill:#FBBEBE;}
	.st6{fill:#E8E8F0;}
</style>
<path class="st0" d="M136,274c0,0,4.3,22.5,1.2,24.9s23.1,6.1,23.1,6.1s3-29.8,3.7-32.9S136,274,136,274z"/>
<path class="st0" d="M151.2,451.6c0,0-9.1,34.7,2.4,34.7s11-35.9,11-35.9L151.2,451.6z"/>
<path class="st1" d="M398.3,308.2c0,0-23-0.5-24.2,28.9c-1.2,29.4,0.3,56.9,0.3,57.5s11.1,56,19.9,55.8c8.8-0.3,15.5-1.6,17.5-4.6
	s-6.7-45-6.7-45s-4.7-44.5,0.4-58.7S410.5,309.6,398.3,308.2z"/>
<polyline class="st2" points="135.1,346.8 129.1,411.8 149.1,456.8 136.1,410.8 135.1,345.8 "/>
<polygon class="st2" points="431.3,323.1 432.8,399.7 427.3,358.1 "/>
<g>
	<path class="st3" d="M81.2,966.7c0,0-12,50.2-1.1,52.3c10.9,2.2,64.3,1.5,77.4,3.7c13.1,2.2,40.3-1.5,40.3-11.3
		S169.5,995,169.5,995s-40.3-21.8-41.4-22.9C127,971,81.2,966.7,81.2,966.7z"/>
	<path class="st3" d="M90.6,610c12.5,23.1,12.1,38.1,8.9,47.7c-1.5,4.6-4.1,9.3-6.5,18.7c-3.4,13-3.5,23.3-3.6,27.1
		c-0.5,28.5-5,56.9-6.7,85.3c-5.9,99.7-9,103.2-6.5,121c2,14.9,3.3,27.3,1.5,46.2c-0.8,8.3-2,13.1-2,16.7c0,7.8,42.2,4.9,42.2,4.9
		l45.6-288.1l-23.5-86L90.6,610z"/>
	<path class="st3" d="M100.7,966.8c0,0-10.9,39.3,0,41.4s64.3-2.5,77.4-0.3c13.1,2.2,40.3,2.5,40.3-7.3s-28.3-16.4-28.3-16.4
		s-40.3-21.8-41.4-22.9S100.7,966.8,100.7,966.8z"/>
	<path class="st3" d="M86.7,550.5c0,0-15.6,37.8,2.6,57.4s39.1,58.7,39.1,61.3c0,13.4-0.4,37.7-9.1,86.9c-5.7,32.4-6.4,29.8-8.3,45
		c-4.7,37.6-2.4,68.1-1,85c3.2,40.1,9,47.3,6.3,66.3c-0.3,2.1-1.7,11.7,1.3,23.3c1.5,5.9,4.2,15.9,10.7,19.2
		c11,5.6,37.7-6.1,41.7-22.2c8.5-33.9-0.4-56.2-2.6-117.3c-2.6-71.1,24.3-107,31.2-179c1.8-18.1,1.7-33.4,6.6-52.1
		c2.4-9.4,5.9-19,5.4-30.6c-0.2-4.3-0.9-8.1,0.7-13.5c1.3-4.4,3.2-7.2,3.5-12.7c0,0,0.2-3.4-0.5-6.7
		C212.2,550.1,101.5,550.4,86.7,550.5z"/>
	<path class="st4" d="M99.7,482.2c-2.9,17.4-16.3,31-22.5,47.5c-5.6,14.8-5.3,31.2-2,46.7c3.3,15.4,9.5,30.1,15.6,44.7
		c2.4,5.8,3.3,8.2,3.9,10.2c0,0,0.4,1.4,0.8,2.8c1.2,4.9,0.7,20.9-2.3,42.4c35.2,0.1,70.5,0.1,105.7,0.2c0.8-8.1,1.8-14.6,2.7-19.1
		c1.8-9.6,2.9-11.6,3.4-18.7c0.3-4.4-0.1-8.7,0.7-13.2c0.8-4.4,2.8-8.6,3.9-13c1.7-7,0.9-14.3,1.5-21.5c0.9-12.2,5.7-24,4.8-36.2
		c-0.4-5.4-1.8-11.2,0.3-16.2c0.9-2.1,2.4-3.9,3.5-5.9c2.7-4.6,3.7-10,2.9-15.2c-0.3-2.4-1.2-4.6-2.7-6.5c-1.3-1.3-2.8-2.4-4.4-3.2
		c-18.6-10-40.7-10.4-60.7-16.7c-13.1-4.2-26.3-11-39.9-8.8C109.6,483.2,104.7,481.5,99.7,482.2z"/>
</g>
<polygon class="st4" points="281.2,1030.7 23.4,1030.7 23.4,1028.6 281.5,1028.6 "/>
<g>
	<circle class="st0" cx="146.3" cy="160.1" r="20.7"/>
	<path class="st5" d="M112.8,169c0.3-4,0.3-8.1,0.2-12.1c-0.2-3.4-0.6-6.8-1.2-10.1c-1.1-6.5-2.7-13-3.6-19.5
		c-0.2-1.3-0.3-2.8,0.6-3.8c0.7-0.7,1.6-1.1,2.6-1.2c7.4-1.6,15-1.2,22.5-0.4c11.8,1.3,23.4,3.6,34.8,6.9c5.7,1.7,11.3,3.6,16.8,5.8
		c5.1,2,12.3,4,16.5,7.6c-2.9,5-8.6,8.2-11.5,13.7c-0.7,1.4-1.3,2.8-1.8,4.3c-2,6.4-1.3,11.9-0.8,15.9c0.2,1.3,0.6,4.3,1.7,8
		c0.5,1.6,0.9,2.8,1,3.1c0.9,2.7,1.2,7.6-2.1,17.5c-7.5-12.1-14.1-15.4-18.9-16c-0.7-0.1-3.9-0.4-10.2-0.6c-4-0.2-8-0.2-12-0.8
		c-3.7-0.5-7.3-1.4-10.9-2.1c-8-1.5-16.2-2-24.4-2.4C112.4,178.2,112.6,173.6,112.8,169z"/>
	<circle class="st5" cx="158.9" cy="98" r="67"/>
	<path class="st4" d="M194.9,78.5c-2.8,3.6-6.4,6.5-8.7,10.4c-1.7,3.1-2.6,6.8-4.8,9.6c-4.4,5.6-14,5.6-18.4,0
		c-0.8-1.2-1.7-2.4-2.7-3.4c-2.4-2-6.1-1.5-9-0.3c-7.6,3.2-13,10.1-14.4,18.2c-1.5,9.8,3.1,19.5,3.3,29.4c0.1,1.8-0.2,3.6-0.9,5.3
		c-1.8,3.7-6.3,4.9-10.2,5.7c-8.5,1.6-17.1,2.8-25.7,3.4c-2.7-8.7-9.3-15.4-14.3-23c-8.8-13.4-12.3-29.4-15.7-45
		c-3.1-14.5-6.1-30.2-0.1-43.7c2.5-5.6,6.5-10.5,10.7-15c8.8-9.5,18.9-17.9,30.9-22.8s25.8-6.2,37.8-1.5c1.5,0.7,3.2,1.2,4.9,1.4
		c2.1,0,4.1-0.5,6-1.4c9.5-3.8,19.9-7.6,29.7-4.8c3.6,1.1,7,2.8,10,5.1c14,9.8,23.8,26.1,23.7,43.2c0.1,1.9-0.3,3.9-1.1,5.6
		c-1.4,2.5-4.3,3.7-7.1,4.2c-6,1.2-12.8-0.6-15.9-5.8c-1.6-2.6-2.6-6.2-5.4-7c-2.8-0.7-5.6,2.1-5.9,5
		C190.5,62.9,204.2,66.6,194.9,78.5z"/>
</g>
<path class="st6" d="M57.7,256.9c1.2-11,2.4-16.7,5.2-24.3c2.8-7.7,7.9-15,15.2-18.7c1.8-0.9,3.8-1.6,5.5-2.6c2-1.2,3.8-2.6,5.5-4.2
	l14.2-12.4c2.8-2.5,5.8-5.1,7.1-8.6c0.6-1.3,0.7-2.8,0.4-4.2c-0.4-1.4-1.6-2.5-3.1-2.6c-0.7,0-1.4,0.3-2-0.3s-0.5-1.5-0.3-2.3
	c1.7-5.8,3.9-12.4,6.1-18c41.1,18.3,57.8,26.9,62.2,30.4c0.6,0.5,2.6,2.1,5.6,4.3c6.2,4.5,8.4,4.8,10.2,7.2c2.5,3.4,3.2,6.8,4,13.3
	c2.1,17.2,2.8,25.7,1.7,33.3c-0.6,4.4-1.5,8.9-0.2,13.1c0.9,2.9,2.8,5.5,4.5,8c10,14.8,15.2,32.2,15,50c-0.1,7.8-1.2,15.7,0.5,23.3
	c2.3,10.2,3.1,20.5,3.9,30.9c1,12.5,2,25,5.8,37.1c2,6.2,4.4,12.2,6.1,18.5c5.8,21.2,3.2,43.4,2,65.6c-0.4,6.7-0.6,13.5-0.4,20.1
	c0.1,3.2,0.3,6.4-0.8,9.4c-1.8,5.2-7.2,8.5-12.6,9.5s-11,0.1-16.4-0.9c-36.3-6.7-72-16-106.9-27.8c-2.5-0.8-5-1.8-6.7-3.8
	c-2-2.3-2.2-5.6-2.8-8.6c-1.7-8.7-6.9-18-2.4-25.7c0.9-1.5,2.1-2.8,2.5-4.5c0.2-1.6,0-3.2-0.6-4.7c-1.6-6-3.6-11.8-6-17.5
	c-2.4-5.3-5.5-10.3-6.9-15.9c-0.3-1.3-0.6-2.7-0.8-4c-2-17.4-6-34.4-13.5-50.2c-1.6-3.5-2.6-5-3.5-8.3c-2.7-9.7-0.1-17.9,0.8-21.7
	c3.7-14.8-2.9-15.9-2.7-43.6C53.5,294.5,54.9,281.9,57.7,256.9z"/>
<path class="st4" d="M86.8,673.5"/>
<path class="st3" d="M71.7,721.2"/>
<path class="st4" d="M92.3,675.9"/>
<path class="st6" d="M203.1,181.7"/>
<path class="st6" d="M176.7,199.4"/>
</svg>
